  0
SECTION
  2
HEADER
  9
$ACADVER
  1
AC1014
  9
$HANDSEED
  5
FFFF
  9
$MEASUREMENT
 70
     1
  0
ENDSEC
  0
SECTION
  2
TABLES
  0
TABLE
  2
VPORT
  5
8
330
0
100
AcDbSymbolTable
 70
     4
  0
VPORT
  5
2E
330
8
100
AcDbSymbolTableRecord
100
AcDbViewportTableRecord
  2
*ACTIVE
 70
     0
 10
0.0
 20
0.0
 11
1.0
 21
1.0
 12
210.0
 22
148.5
 13
0.0
 23
0.0
 14
10.0
 24
10.0
 15
10.0
 25
10.0
 16
0.0
 26
0.0
 36
1.0
 17
0.0
 27
0.0
 37
0.0
 40
341.0
 41
1.24
 42
50.0
 43
0.0
 44
0.0
 50
0.0
 51
0.0
 71
     0
 72
   100
 73
     1
 74
     3
 75
     0
 76
     0
 77
     0
 78
     0
  0
ENDTAB
  0
TABLE
  2
LTYPE
  5
5
330
0
100
AcDbSymbolTable
 70
     1
  0
LTYPE
  5
14
330
5
100
AcDbSymbolTableRecord
100
AcDbLinetypeTableRecord
  2
BYBLOCK
 70
     0
  3

 72
    65
 73
     0
 40
0.0
  0
LTYPE
  5
15
330
5
100
AcDbSymbolTableRecord
100
AcDbLinetypeTableRecord
  2
BYLAYER
 70
     0
  3

 72
    65
 73
     0
 40
0.0
  0
LTYPE
  5
16
330
5
100
AcDbSymbolTableRecord
100
AcDbLinetypeTableRecord
  2
CONTINUOUS
 70
     0
  3
Solid line
 72
    65
 73
     0
 40
0.0
  0
ENDTAB
  0
TABLE
  2
LAYER
  5
2
100
AcDbSymbolTable
 70
1
  0
LAYER
  5
50
100
AcDbSymbolTableRecord
100
AcDbLayerTableRecord
  2
0
 70
0
  6
CONTINUOUS
  0
ENDTAB
  0
TABLE
  2
STYLE
  5
3
330
0
100
AcDbSymbolTable
 70
     1
  0
STYLE
  5
11
330
3
100
AcDbSymbolTableRecord
100
AcDbTextStyleTableRecord
  2
STANDARD
 70
     0
 40
0.0
 41
1.0
 50
0.0
 71
     0
 42
2.5
  3
txt
  4

  0
ENDTAB
  0
TABLE
  2
VIEW
  5
6
330
0
100
AcDbSymbolTable
 70
     0
  0
ENDTAB
  0
TABLE
  2
UCS
  5
7
330
0
100
AcDbSymbolTable
 70
     0
  0
ENDTAB
  0
TABLE
  2
APPID
  5
9
330
0
100
AcDbSymbolTable
 70
     2
  0
APPID
  5
12
330
9
100
AcDbSymbolTableRecord
100
AcDbRegAppTableRecord
  2
ACAD
 70
     0
  0
ENDTAB
  0
TABLE
  2
DIMSTYLE
  5
A
330
0
100
AcDbSymbolTable
 70
     1
  0
DIMSTYLE
105
27
330
A
100
AcDbSymbolTableRecord
100
AcDbDimStyleTableRecord
  2
ISO-25
 70
     0
  3

  4

  5

  6

  7

 40
1.0
 41
2.5
 42
0.625
 43
3.75
 44
1.25
 45
0.0
 46
0.0
 47
0.0
 48
0.0
140
2.5
141
2.5
142
0.0
143
0.03937007874016
144
1.0
145
0.0
146
1.0
147
0.625
 71
     0
 72
     0
 73
     0
 74
     0
 75
     0
 76
     0
 77
     1
 78
     8
170
     0
171
     3
172
     1
173
     0
174
     0
175
     0
176
     0
177
     0
178
     0
270
     2
271
     2
272
     2
273
     2
274
     3
340
11
275
     0
280
     0
281
     0
282
     0
283
     0
284
     8
285
     0
286
     0
287
     3
288
     0
  0
ENDTAB
  0
TABLE
  2
BLOCK_RECORD
  5
1
330
0
100
AcDbSymbolTable
 70
     1
  0
BLOCK_RECORD
  5
1F
330
1
100
AcDbSymbolTableRecord
100
AcDbBlockTableRecord
  2
*MODEL_SPACE
  0
BLOCK_RECORD
  5
1B
330
1
100
AcDbSymbolTableRecord
100
AcDbBlockTableRecord
  2
*PAPER_SPACE
  0
ENDTAB
  0
ENDSEC
  0
SECTION
  2
BLOCKS
  0
BLOCK
  5
20
330
1F
100
AcDbEntity
  8
0
100
AcDbBlockBegin
  2
*MODEL_SPACE
 70
     0
 10
0.0
 20
0.0
 30
0.0
  3
*MODEL_SPACE
  1

  0
ENDBLK
  5
21
330
1F
100
AcDbEntity
  8
0
100
AcDbBlockEnd
  0
BLOCK
  5
1C
330
1B
100
AcDbEntity
 67
     1
  8
0
100
AcDbBlockBegin
  2
*PAPER_SPACE
  1

  0
ENDBLK
  5
1D
330
1B
100
AcDbEntity
 67
     1
  8
0
100
AcDbBlockEnd
  0
ENDSEC
  0
SECTION
  2
ENTITIES
  0
SPLINE
  5
100
100
AcDbEntity
  8
0
 62
7
100
AcDbSpline
 70
8
 71
3
 72
8
 73
4
 74
0
 40
0
 40
0
 40
0
 40
0
 40
1
 40
1
 40
1
 40
1
 10
280.737542
 20
161.860151
 30
0.0
 10
279.456009
 20
157.897700
 30
0.0
 10
277.151534
 20
152.876963
 30
0.0
 10
275.245283
 20
148.148146
 30
0.0
  0
SPLINE
  5
101
100
AcDbEntity
  8
0
 62
7
100
AcDbSpline
 70
8
 71
3
 72
8
 73
4
 74
0
 40
0
 40
0
 40
0
 40
0
 40
1
 40
1
 40
1
 40
1
 10
275.245283
 20
148.148146
 30
0.0
 10
272.377651
 20
141.034439
 30
0.0
 10
270.411207
 20
134.581352
 30
0.0
 10
270.621056
 20
127.585684
 30
0.0
  0
SPLINE
  5
102
100
AcDbEntity
  8
0
 62
7
100
AcDbSpline
 70
8
 71
3
 72
8
 73
4
 74
0
 40
0
 40
0
 40
0
 40
0
 40
1
 40
1
 40
1
 40
1
 10
270.621056
 20
127.585684
 30
0.0
 10
270.753209
 20
123.180143
 30
0.0
 10
271.748455
 20
118.559421
 30
0.0
 10
273.269085
 20
114.157722
 30
0.0
  0
SPLINE
  5
103
100
AcDbEntity
  8
0
 62
7
100
AcDbSpline
 70
8
 71
3
 72
8
 73
4
 74
0
 40
0
 40
0
 40
0
 40
0
 40
1
 40
1
 40
1
 40
1
 10
273.269085
 20
114.157722
 30
0.0
 10
276.448159
 20
104.955399
 30
0.0
 10
281.923546
 20
96.710367
 30
0.0
 10
289.534924
 20
90.865251
 30
0.0
  0
SPLINE
  5
104
100
AcDbEntity
  8
0
 62
7
100
AcDbSpline
 70
8
 71
3
 72
8
 73
4
 74
0
 40
0
 40
0
 40
0
 40
0
 40
1
 40
1
 40
1
 40
1
 10
289.534924
 20
90.865251
 30
0.0
 10
296.751787
 20
85.323101
 30
0.0
 10
305.888953
 20
81.938529
 30
0.0
 10
314.849854
 20
79.881855
 30
0.0
  0
SPLINE
  5
105
100
AcDbEntity
  8
0
 62
7
100
AcDbSpline
 70
8
 71
3
 72
8
 73
4
 74
0
 40
0
 40
0
 40
0
 40
0
 40
1
 40
1
 40
1
 40
1
 10
314.849854
 20
79.881855
 30
0.0
 10
318.662766
 20
79.006729
 30
0.0
 10
322.443764
 20
78.372026
 30
0.0
 10
326.149949
 20
77.750728
 30
0.0
  0
SPLINE
  5
106
100
AcDbEntity
  8
0
 62
7
100
AcDbSpline
 70
8
 71
3
 72
8
 73
4
 74
0
 40
0
 40
0
 40
0
 40
0
 40
1
 40
1
 40
1
 40
1
 10
326.149949
 20
77.750728
 30
0.0
 10
327.265877
 20
77.563656
 30
0.0
 10
328.375023
 20
77.377799
 30
0.0
 10
329.545979
 20
77.010864
 30
0.0
  0
SPLINE
  5
107
100
AcDbEntity
  8
0
 62
7
100
AcDbSpline
 70
8
 71
3
 72
8
 73
4
 74
0
 40
0
 40
0
 40
0
 40
0
 40
1
 40
1
 40
1
 40
1
 10
329.545979
 20
77.010864
 30
0.0
 10
330.324442
 20
76.766922
 30
0.0
 10
331.130224
 20
76.442949
 30
0.0
 10
331.708559
 20
75.911988
 30
0.0
  0
SPLINE
  5
108
100
AcDbEntity
  8
0
 62
7
100
AcDbSpline
 70
8
 71
3
 72
8
 73
4
 74
0
 40
0
 40
0
 40
0
 40
0
 40
1
 40
1
 40
1
 40
1
 10
331.708559
 20
75.911988
 30
0.0
 10
332.119519
 20
75.534692
 30
0.0
 10
332.415632
 20
75.052880
 30
0.0
 10
332.575493
 20
74.499756
 30
0.0
  0
SPLINE
  5
109
100
AcDbEntity
  8
0
 62
7
100
AcDbSpline
 70
8
 71
3
 72
8
 73
4
 74
0
 40
0
 40
0
 40
0
 40
0
 40
1
 40
1
 40
1
 40
1
 10
332.575493
 20
74.499756
 30
0.0
 10
332.735167
 20
73.947276
 30
0.0
 10
332.758907
 20
73.323651
 30
0.0
 10
332.595624
 20
72.750047
 30
0.0
  0
SPLINE
  5
10a
100
AcDbEntity
  8
0
 62
7
100
AcDbSpline
 70
8
 71
3
 72
8
 73
4
 74
0
 40
0
 40
0
 40
0
 40
0
 40
1
 40
1
 40
1
 40
1
 10
332.595624
 20
72.750047
 30
0.0
 10
332.236812
 20
71.489558
 30
0.0
 10
330.974876
 20
70.470619
 30
0.0
 10
329.710069
 20
69.558541
 30
0.0
  0
SPLINE
  5
10b
100
AcDbEntity
  8
0
 62
7
100
AcDbSpline
 70
8
 71
3
 72
8
 73
4
 74
0
 40
0
 40
0
 40
0
 40
0
 40
1
 40
1
 40
1
 40
1
 10
329.710069
 20
69.558541
 30
0.0
 10
320.612880
 20
62.998374
 30
0.0
 10
311.367189
 20
61.966489
 30
0.0
 10
302.660192
 20
61.797006
 30
0.0
  0
SPLINE
  5
10c
100
AcDbEntity
  8
0
 62
7
100
AcDbSpline
 70
8
 71
3
 72
8
 73
4
 74
0
 40
0
 40
0
 40
0
 40
0
 40
1
 40
1
 40
1
 40
1
 10
302.660192
 20
61.797006
 30
0.0
 10
291.514822
 20
61.580058
 30
0.0
 10
281.252115
 20
62.776174
 30
0.0
 10
271.106520
 20
65.613151
 30
0.0
  0
SPLINE
  5
10d
100
AcDbEntity
  8
0
 62
7
100
AcDbSpline
 70
8
 71
3
 72
8
 73
4
 74
0
 40
0
 40
0
 40
0
 40
0
 40
1
 40
1
 40
1
 40
1
 10
271.106520
 20
65.613151
 30
0.0
 10
266.579571
 20
66.879006
 30
0.0
 10
262.075939
 20
68.471545
 30
0.0
 10
257.546154
 20
70.233539
 30
0.0
  0
SPLINE
  5
10e
100
AcDbEntity
  8
0
 62
7
100
AcDbSpline
 70
8
 71
3
 72
8
 73
4
 74
0
 40
0
 40
0
 40
0
 40
0
 40
1
 40
1
 40
1
 40
1
 10
257.546154
 20
70.233539
 30
0.0
 10
252.444327
 20
72.218046
 30
0.0
 10
247.309325
 20
74.417509
 30
0.0
 10
242.403953
 20
76.486951
 30
0.0
  0
SPLINE
  5
10f
100
AcDbEntity
  8
0
 62
7
100
AcDbSpline
 70
8
 71
3
 72
8
 73
4
 74
0
 40
0
 40
0
 40
0
 40
0
 40
1
 40
1
 40
1
 40
1
 10
242.403953
 20
76.486951
 30
0.0
 10
235.445849
 20
79.422385
 30
0.0
 10
228.949770
 20
82.096212
 30
0.0
 10
221.403510
 20
83.987747
 30
0.0
  0
SPLINE
  5
110
100
AcDbEntity
  8
0
 62
7
100
AcDbSpline
 70
8
 71
3
 72
8
 73
4
 74
0
 40
0
 40
0
 40
0
 40
0
 40
1
 40
1
 40
1
 40
1
 10
221.403510
 20
83.987747
 30
0.0
 10
212.241165
 20
86.284370
 30
0.0
 10
201.530666
 20
87.427756
 30
0.0
 10
191.444116
 20
86.206444
 30
0.0
  0
SPLINE
  5
111
100
AcDbEntity
  8
0
 62
7
100
AcDbSpline
 70
8
 71
3
 72
8
 73
4
 74
0
 40
0
 40
0
 40
0
 40
0
 40
1
 40
1
 40
1
 40
1
 10
191.444116
 20
86.206444
 30
0.0
 10
181.272944
 20
84.974886
 30
0.0
 10
171.736234
 20
81.338786
 30
0.0
 10
162.700196
 20
77.515865
 30
0.0
  0
SPLINE
  5
112
100
AcDbEntity
  8
0
 62
7
100
AcDbSpline
 70
8
 71
3
 72
8
 73
4
 74
0
 40
0
 40
0
 40
0
 40
0
 40
1
 40
1
 40
1
 40
1
 10
162.700196
 20
77.515865
 30
0.0
 10
150.591374
 20
72.392927
 30
0.0
 10
139.381637
 20
66.934504
 30
0.0
 10
129.384189
 20
62.365792
 30
0.0
  0
SPLINE
  5
113
100
AcDbEntity
  8
0
 62
7
100
AcDbSpline
 70
8
 71
3
 72
8
 73
4
 74
0
 40
0
 40
0
 40
0
 40
0
 40
1
 40
1
 40
1
 40
1
 10
129.384189
 20
62.365792
 30
0.0
 10
122.716253
 20
59.318626
 30
0.0
 10
116.587592
 20
56.667239
 30
0.0
 10
108.507262
 20
53.749004
 30
0.0
  0
SPLINE
  5
114
100
AcDbEntity
  8
0
 62
7
100
AcDbSpline
 70
8
 71
3
 72
8
 73
4
 74
0
 40
0
 40
0
 40
0
 40
0
 40
1
 40
1
 40
1
 40
1
 10
108.507262
 20
53.749004
 30
0.0
 10
104.120290
 20
52.164637
 30
0.0
 10
99.158039
 20
50.501612
 30
0.0
 10
93.737284
 20
48.605276
 30
0.0
  0
SPLINE
  5
115
100
AcDbEntity
  8
0
 62
7
100
AcDbSpline
 70
8
 71
3
 72
8
 73
4
 74
0
 40
0
 40
0
 40
0
 40
0
 40
1
 40
1
 40
1
 40
1
 10
93.737284
 20
48.605276
 30
0.0
 10
77.598132
 20
42.959337
 30
0.0
 10
57.394679
 20
35.245267
 30
0.0
 10
47.894586
 20
44.371965
 30
0.0
  0
SPLINE
  5
116
100
AcDbEntity
  8
0
 62
7
100
AcDbSpline
 70
8
 71
3
 72
8
 73
4
 74
0
 40
0
 40
0
 40
0
 40
0
 40
1
 40
1
 40
1
 40
1
 10
47.894586
 20
44.371965
 30
0.0
 10
46.202987
 20
45.997077
 30
0.0
 10
44.850747
 20
48.156140
 30
0.0
 10
44.114292
 20
50.807739
 30
0.0
  0
SPLINE
  5
117
100
AcDbEntity
  8
0
 62
7
100
AcDbSpline
 70
8
 71
3
 72
8
 73
4
 74
0
 40
0
 40
0
 40
0
 40
0
 40
1
 40
1
 40
1
 40
1
 10
44.114292
 20
50.807739
 30
0.0
 10
43.553224
 20
52.827861
 30
0.0
 10
43.349567
 20
55.133859
 30
0.0
 10
43.779963
 20
57.279145
 30
0.0
  0
SPLINE
  5
118
100
AcDbEntity
  8
0
 62
7
100
AcDbSpline
 70
8
 71
3
 72
8
 73
4
 74
0
 40
0
 40
0
 40
0
 40
0
 40
1
 40
1
 40
1
 40
1
 10
43.779963
 20
57.279145
 30
0.0
 10
44.342642
 20
60.083780
 30
0.0
 10
45.989018
 20
62.613733
 30
0.0
 10
47.544152
 20
64.888838
 30
0.0
  0
SPLINE
  5
119
100
AcDbEntity
  8
0
 62
7
100
AcDbSpline
 70
8
 71
3
 72
8
 73
4
 74
0
 40
0
 40
0
 40
0
 40
0
 40
1
 40
1
 40
1
 40
1
 10
47.544152
 20
64.888838
 30
0.0
 10
53.162413
 20
73.108157
 30
0.0
 10
57.589795
 20
78.001275
 30
0.0
 10
62.274592
 20
83.272635
 30
0.0
  0
SPLINE
  5
11a
100
AcDbEntity
  8
0
 62
7
100
AcDbSpline
 70
8
 71
3
 72
8
 73
4
 74
0
 40
0
 40
0
 40
0
 40
0
 40
1
 40
1
 40
1
 40
1
 10
62.274592
 20
83.272635
 30
0.0
 10
67.246618
 20
88.867187
 30
0.0
 10
72.508591
 20
94.887783
 30
0.0
 10
76.799769
 20
101.431727
 30
0.0
  0
SPLINE
  5
11b
100
AcDbEntity
  8
0
 62
7
100
AcDbSpline
 70
8
 71
3
 72
8
 73
4
 74
0
 40
0
 40
0
 40
0
 40
0
 40
1
 40
1
 40
1
 40
1
 10
76.799769
 20
101.431727
 30
0.0
 10
79.259560
 20
105.182849
 30
0.0
 10
81.400365
 20
109.105933
 30
0.0
 10
83.059824
 20
114.295039
 30
0.0
  0
SPLINE
  5
11c
100
AcDbEntity
  8
0
 62
7
100
AcDbSpline
 70
8
 71
3
 72
8
 73
4
 74
0
 40
0
 40
0
 40
0
 40
0
 40
1
 40
1
 40
1
 40
1
 10
83.059824
 20
114.295039
 30
0.0
 10
84.721922
 20
119.492396
 30
0.0
 10
85.901142
 20
125.959805
 30
0.0
 10
86.471024
 20
133.313470
 30
0.0
  0
SPLINE
  5
11d
100
AcDbEntity
  8
0
 62
7
100
AcDbSpline
 70
8
 71
3
 72
8
 73
4
 74
0
 40
0
 40
0
 40
0
 40
0
 40
1
 40
1
 40
1
 40
1
 10
86.471024
 20
133.313470
 30
0.0
 10
86.908688
 20
138.961005
 30
0.0
 10
86.986960
 20
145.131262
 30
0.0
 10
86.986960
 20
151.889364
 30
0.0
  0
SPLINE
  5
11e
100
AcDbEntity
  8
0
 62
7
100
AcDbSpline
 70
8
 71
3
 72
8
 73
4
 74
0
 40
0
 40
0
 40
0
 40
0
 40
1
 40
1
 40
1
 40
1
 10
86.986963
 20
151.889364
 30
0.0
 10
87.773427
 20
151.890348
 30
0.0
 10
88.560921
 20
151.891334
 30
0.0
 10
89.349448
 20
151.892320
 30
0.0
  0
SPLINE
  5
11f
100
AcDbEntity
  8
0
 62
7
100
AcDbSpline
 70
8
 71
3
 72
8
 73
4
 74
0
 40
0
 40
0
 40
0
 40
0
 40
1
 40
1
 40
1
 40
1
 10
275.379252
 20
162.353757
 30
0.0
 10
274.446501
 20
162.596033
 30
0.0
 10
273.673015
 20
162.915342
 30
0.0
 10
272.951737
 20
163.400952
 30
0.0
  0
SPLINE
  5
120
100
AcDbEntity
  8
0
 62
7
100
AcDbSpline
 70
8
 71
3
 72
8
 73
4
 74
0
 40
0
 40
0
 40
0
 40
0
 40
1
 40
1
 40
1
 40
1
 10
272.951737
 20
163.400952
 30
0.0
 10
272.322512
 20
163.824585
 30
0.0
 10
271.733019
 20
164.374779
 30
0.0
 10
271.363023
 20
165.048822
 30
0.0
  0
SPLINE
  5
121
100
AcDbEntity
  8
0
 62
7
100
AcDbSpline
 70
8
 71
3
 72
8
 73
4
 74
0
 40
0
 40
0
 40
0
 40
0
 40
1
 40
1
 40
1
 40
1
 10
271.363023
 20
165.048822
 30
0.0
 10
271.013625
 20
165.685338
 30
0.0
 10
270.859965
 20
166.432298
 30
0.0
 10
270.716083
 20
167.201242
 30
0.0
  0
SPLINE
  5
122
100
AcDbEntity
  8
0
 62
7
100
AcDbSpline
 70
8
 71
3
 72
8
 73
4
 74
0
 40
0
 40
0
 40
0
 40
0
 40
1
 40
1
 40
1
 40
1
 10
270.716083
 20
167.201242
 30
0.0
 10
269.955217
 20
171.267499
 30
0.0
 10
269.467779
 20
175.948545
 30
0.0
 10
269.113959
 20
179.975848
 30
0.0
  0
SPLINE
  5
123
100
AcDbEntity
  8
0
 62
7
100
AcDbSpline
 70
8
 71
3
 72
8
 73
4
 74
0
 40
0
 40
0
 40
0
 40
0
 40
1
 40
1
 40
1
 40
1
 10
269.113959
 20
179.975848
 30
0.0
 10
268.757007
 20
184.038803
 30
0.0
 10
268.536050
 20
187.436390
 30
0.0
 10
268.560056
 20
191.171168
 30
0.0
  0
SPLINE
  5
124
100
AcDbEntity
  8
0
 62
7
100
AcDbSpline
 70
8
 71
3
 72
8
 73
4
 74
0
 40
0
 40
0
 40
0
 40
0
 40
1
 40
1
 40
1
 40
1
 10
268.560056
 20
191.171168
 30
0.0
 10
268.596037
 20
196.768983
 30
0.0
 10
269.182327
 20
203.124298
 30
0.0
 10
270.102185
 20
209.537414
 30
0.0
  0
SPLINE
  5
125
100
AcDbEntity
  8
0
 62
7
100
AcDbSpline
 70
8
 71
3
 72
8
 73
4
 74
0
 40
0
 40
0
 40
0
 40
0
 40
1
 40
1
 40
1
 40
1
 10
270.102185
 20
209.537414
 30
0.0
 10
270.335194
 20
211.161915
 30
0.0
 10
270.589606
 20
212.790125
 30
0.0
 10
270.900779
 20
213.939860
 30
0.0
  0
SPLINE
  5
126
100
AcDbEntity
  8
0
 62
7
100
AcDbSpline
 70
8
 71
3
 72
8
 73
4
 74
0
 40
0
 40
0
 40
0
 40
0
 40
1
 40
1
 40
1
 40
1
 10
270.900779
 20
213.939860
 30
0.0
 10
271.053585
 20
214.504455
 30
0.0
 10
271.220078
 20
214.953669
 30
0.0
 10
271.566854
 20
215.470151
 30
0.0
  0
SPLINE
  5
127
100
AcDbEntity
  8
0
 62
7
100
AcDbSpline
 70
8
 71
3
 72
8
 73
4
 74
0
 40
0
 40
0
 40
0
 40
0
 40
1
 40
1
 40
1
 40
1
 10
271.566854
 20
215.470151
 30
0.0
 10
272.110120
 20
216.279285
 30
0.0
 10
273.095853
 20
217.253518
 30
0.0
 10
274.131833
 20
217.749999
 30
0.0
  0
SPLINE
  5
128
100
AcDbEntity
  8
0
 62
7
100
AcDbSpline
 70
8
 71
3
 72
8
 73
4
 74
0
 40
0
 40
0
 40
0
 40
0
 40
1
 40
1
 40
1
 40
1
 10
274.131833
 20
217.749999
 30
0.0
 10
274.855988
 20
218.097041
 30
0.0
 10
275.604693
 20
218.210651
 30
0.0
 10
277.048719
 20
218.210651
 30
0.0
  0
SPLINE
  5
129
100
AcDbEntity
  8
0
 62
7
100
AcDbSpline
 70
8
 71
3
 72
8
 73
4
 74
0
 40
0
 40
0
 40
0
 40
0
 40
1
 40
1
 40
1
 40
1
 10
105.083493
 20
95.417491
 30
0.0
 10
105.083493
 20
97.133047
 30
0.0
 10
104.168255
 20
98.718287
 30
0.0
 10
102.682539
 20
99.576065
 30
0.0
  0
SPLINE
  5
12a
100
AcDbEntity
  8
0
 62
7
100
AcDbSpline
 70
8
 71
3
 72
8
 73
4
 74
0
 40
0
 40
0
 40
0
 40
0
 40
1
 40
1
 40
1
 40
1
 10
102.682539
 20
99.576065
 30
0.0
 10
101.196824
 20
100.433843
 30
0.0
 10
99.366347
 20
100.433843
 30
0.0
 10
97.880632
 20
99.576065
 30
0.0
  0
SPLINE
  5
12b
100
AcDbEntity
  8
0
 62
7
100
AcDbSpline
 70
8
 71
3
 72
8
 73
4
 74
0
 40
0
 40
0
 40
0
 40
0
 40
1
 40
1
 40
1
 40
1
 10
97.880632
 20
99.576065
 30
0.0
 10
96.394916
 20
98.718287
 30
0.0
 10
95.479678
 20
97.133047
 30
0.0
 10
95.479678
 20
95.417491
 30
0.0
  0
SPLINE
  5
12c
100
AcDbEntity
  8
0
 62
7
100
AcDbSpline
 70
8
 71
3
 72
8
 73
4
 74
0
 40
0
 40
0
 40
0
 40
0
 40
1
 40
1
 40
1
 40
1
 10
95.479678
 20
95.417491
 30
0.0
 10
95.479678
 20
93.701935
 30
0.0
 10
96.394916
 20
92.116695
 30
0.0
 10
97.880632
 20
91.258917
 30
0.0
  0
SPLINE
  5
12d
100
AcDbEntity
  8
0
 62
7
100
AcDbSpline
 70
8
 71
3
 72
8
 73
4
 74
0
 40
0
 40
0
 40
0
 40
0
 40
1
 40
1
 40
1
 40
1
 10
97.880632
 20
91.258917
 30
0.0
 10
99.366347
 20
90.401139
 30
0.0
 10
101.196824
 20
90.401139
 30
0.0
 10
102.682539
 20
91.258917
 30
0.0
  0
SPLINE
  5
12e
100
AcDbEntity
  8
0
 62
7
100
AcDbSpline
 70
8
 71
3
 72
8
 73
4
 74
0
 40
0
 40
0
 40
0
 40
0
 40
1
 40
1
 40
1
 40
1
 10
102.682539
 20
91.258917
 30
0.0
 10
104.168255
 20
92.116695
 30
0.0
 10
105.083493
 20
93.701935
 30
0.0
 10
105.083493
 20
95.417491
 30
0.0
  0
SPLINE
  5
12f
100
AcDbEntity
  8
0
 62
7
100
AcDbSpline
 70
8
 71
3
 72
8
 73
4
 74
0
 40
0
 40
0
 40
0
 40
0
 40
1
 40
1
 40
1
 40
1
 10
75.770661
 20
61.594457
 30
0.0
 10
75.770661
 20
63.310013
 30
0.0
 10
74.855422
 20
64.895253
 30
0.0
 10
73.369707
 20
65.753031
 30
0.0
  0
SPLINE
  5
130
100
AcDbEntity
  8
0
 62
7
100
AcDbSpline
 70
8
 71
3
 72
8
 73
4
 74
0
 40
0
 40
0
 40
0
 40
0
 40
1
 40
1
 40
1
 40
1
 10
73.369707
 20
65.753031
 30
0.0
 10
71.883991
 20
66.610809
 30
0.0
 10
70.053515
 20
66.610809
 30
0.0
 10
68.567799
 20
65.753031
 30
0.0
  0
SPLINE
  5
131
100
AcDbEntity
  8
0
 62
7
100
AcDbSpline
 70
8
 71
3
 72
8
 73
4
 74
0
 40
0
 40
0
 40
0
 40
0
 40
1
 40
1
 40
1
 40
1
 10
68.567799
 20
65.753031
 30
0.0
 10
67.082084
 20
64.895253
 30
0.0
 10
66.166845
 20
63.310013
 30
0.0
 10
66.166845
 20
61.594457
 30
0.0
  0
SPLINE
  5
132
100
AcDbEntity
  8
0
 62
7
100
AcDbSpline
 70
8
 71
3
 72
8
 73
4
 74
0
 40
0
 40
0
 40
0
 40
0
 40
1
 40
1
 40
1
 40
1
 10
66.166845
 20
61.594457
 30
0.0
 10
66.166845
 20
59.878901
 30
0.0
 10
67.082084
 20
58.293661
 30
0.0
 10
68.567799
 20
57.435883
 30
0.0
  0
SPLINE
  5
133
100
AcDbEntity
  8
0
 62
7
100
AcDbSpline
 70
8
 71
3
 72
8
 73
4
 74
0
 40
0
 40
0
 40
0
 40
0
 40
1
 40
1
 40
1
 40
1
 10
68.567799
 20
57.435883
 30
0.0
 10
70.053515
 20
56.578105
 30
0.0
 10
71.883991
 20
56.578105
 30
0.0
 10
73.369707
 20
57.435883
 30
0.0
  0
SPLINE
  5
134
100
AcDbEntity
  8
0
 62
7
100
AcDbSpline
 70
8
 71
3
 72
8
 73
4
 74
0
 40
0
 40
0
 40
0
 40
0
 40
1
 40
1
 40
1
 40
1
 10
73.369707
 20
57.435883
 30
0.0
 10
74.855422
 20
58.293661
 30
0.0
 10
75.770661
 20
59.878901
 30
0.0
 10
75.770661
 20
61.594457
 30
0.0
  0
LWPOLYLINE
  5
135
100
AcDbEntity
  8
0
 62
7
100
AcDbPolyline
 90
1
 70
1
 10
105.083493
 20
95.417491
 30
0.0
  0
SPLINE
  5
136
100
AcDbEntity
  8
0
 62
7
100
AcDbSpline
 70
8
 71
3
 72
8
 73
4
 74
0
 40
0
 40
0
 40
0
 40
0
 40
1
 40
1
 40
1
 40
1
 10
95.626092
 20
146.286160
 30
0.0
 10
95.626092
 20
146.857451
 30
0.0
 10
95.321312
 20
147.385345
 30
0.0
 10
94.826560
 20
147.670990
 30
0.0
  0
SPLINE
  5
137
100
AcDbEntity
  8
0
 62
7
100
AcDbSpline
 70
8
 71
3
 72
8
 73
4
 74
0
 40
0
 40
0
 40
0
 40
0
 40
1
 40
1
 40
1
 40
1
 10
94.826560
 20
147.670990
 30
0.0
 10
94.331808
 20
147.956635
 30
0.0
 10
93.722249
 20
147.956635
 30
0.0
 10
93.227497
 20
147.670990
 30
0.0
  0
SPLINE
  5
138
100
AcDbEntity
  8
0
 62
7
100
AcDbSpline
 70
8
 71
3
 72
8
 73
4
 74
0
 40
0
 40
0
 40
0
 40
0
 40
1
 40
1
 40
1
 40
1
 10
93.227497
 20
147.670990
 30
0.0
 10
92.732745
 20
147.385345
 30
0.0
 10
92.427965
 20
146.857451
 30
0.0
 10
92.427965
 20
146.286160
 30
0.0
  0
SPLINE
  5
139
100
AcDbEntity
  8
0
 62
7
100
AcDbSpline
 70
8
 71
3
 72
8
 73
4
 74
0
 40
0
 40
0
 40
0
 40
0
 40
1
 40
1
 40
1
 40
1
 10
92.427965
 20
146.286160
 30
0.0
 10
92.427965
 20
145.714870
 30
0.0
 10
92.732745
 20
145.186976
 30
0.0
 10
93.227497
 20
144.901330
 30
0.0
  0
SPLINE
  5
13a
100
AcDbEntity
  8
0
 62
7
100
AcDbSpline
 70
8
 71
3
 72
8
 73
4
 74
0
 40
0
 40
0
 40
0
 40
0
 40
1
 40
1
 40
1
 40
1
 10
93.227497
 20
144.901330
 30
0.0
 10
93.722249
 20
144.615685
 30
0.0
 10
94.331808
 20
144.615685
 30
0.0
 10
94.826560
 20
144.901330
 30
0.0
  0
SPLINE
  5
13b
100
AcDbEntity
  8
0
 62
7
100
AcDbSpline
 70
8
 71
3
 72
8
 73
4
 74
0
 40
0
 40
0
 40
0
 40
0
 40
1
 40
1
 40
1
 40
1
 10
94.826560
 20
144.901330
 30
0.0
 10
95.321312
 20
145.186976
 30
0.0
 10
95.626092
 20
145.714870
 30
0.0
 10
95.626092
 20
146.286160
 30
0.0
  0
LWPOLYLINE
  5
13c
100
AcDbEntity
  8
0
 62
7
100
AcDbPolyline
 90
1
 70
1
 10
75.770661
 20
61.594457
 30
0.0
  0
SPLINE
  5
13d
100
AcDbEntity
  8
0
 62
7
100
AcDbSpline
 70
8
 71
3
 72
8
 73
4
 74
0
 40
0
 40
0
 40
0
 40
0
 40
1
 40
1
 40
1
 40
1
 10
57.200357
 20
52.651739
 30
0.0
 10
57.200357
 20
53.223029
 30
0.0
 10
56.895577
 20
53.750923
 30
0.0
 10
56.400825
 20
54.036569
 30
0.0
  0
SPLINE
  5
13e
100
AcDbEntity
  8
0
 62
7
100
AcDbSpline
 70
8
 71
3
 72
8
 73
4
 74
0
 40
0
 40
0
 40
0
 40
0
 40
1
 40
1
 40
1
 40
1
 10
56.400825
 20
54.036569
 30
0.0
 10
55.906073
 20
54.322214
 30
0.0
 10
55.296513
 20
54.322214
 30
0.0
 10
54.801761
 20
54.036569
 30
0.0
  0
SPLINE
  5
13f
100
AcDbEntity
  8
0
 62
7
100
AcDbSpline
 70
8
 71
3
 72
8
 73
4
 74
0
 40
0
 40
0
 40
0
 40
0
 40
1
 40
1
 40
1
 40
1
 10
54.801761
 20
54.036569
 30
0.0
 10
54.307009
 20
53.750923
 30
0.0
 10
54.002230
 20
53.223029
 30
0.0
 10
54.002230
 20
52.651739
 30
0.0
  0
SPLINE
  5
140
100
AcDbEntity
  8
0
 62
7
100
AcDbSpline
 70
8
 71
3
 72
8
 73
4
 74
0
 40
0
 40
0
 40
0
 40
0
 40
1
 40
1
 40
1
 40
1
 10
54.002230
 20
52.651739
 30
0.0
 10
54.002230
 20
52.080448
 30
0.0
 10
54.307009
 20
51.552554
 30
0.0
 10
54.801761
 20
51.266909
 30
0.0
  0
SPLINE
  5
141
100
AcDbEntity
  8
0
 62
7
100
AcDbSpline
 70
8
 71
3
 72
8
 73
4
 74
0
 40
0
 40
0
 40
0
 40
0
 40
1
 40
1
 40
1
 40
1
 10
54.801761
 20
51.266909
 30
0.0
 10
55.296513
 20
50.981264
 30
0.0
 10
55.906073
 20
50.981264
 30
0.0
 10
56.400825
 20
51.266909
 30
0.0
  0
SPLINE
  5
142
100
AcDbEntity
  8
0
 62
7
100
AcDbSpline
 70
8
 71
3
 72
8
 73
4
 74
0
 40
0
 40
0
 40
0
 40
0
 40
1
 40
1
 40
1
 40
1
 10
56.400825
 20
51.266909
 30
0.0
 10
56.895577
 20
51.552554
 30
0.0
 10
57.200357
 20
52.080448
 30
0.0
 10
57.200357
 20
52.651739
 30
0.0
  0
LWPOLYLINE
  5
143
100
AcDbEntity
  8
0
 62
7
100
AcDbPolyline
 90
1
 70
1
 10
95.626092
 20
146.286160
 30
0.0
  0
SPLINE
  5
144
100
AcDbEntity
  8
0
 62
7
100
AcDbSpline
 70
8
 71
3
 72
8
 73
4
 74
0
 40
0
 40
0
 40
0
 40
0
 40
1
 40
1
 40
1
 40
1
 10
113.780112
 20
63.118078
 30
0.0
 10
113.780345
 20
63.689524
 30
0.0
 10
113.475616
 20
64.217660
 30
0.0
 10
112.980768
 20
64.503450
 30
0.0
  0
SPLINE
  5
145
100
AcDbEntity
  8
0
 62
7
100
AcDbSpline
 70
8
 71
3
 72
8
 73
4
 74
0
 40
0
 40
0
 40
0
 40
0
 40
1
 40
1
 40
1
 40
1
 10
112.980768
 20
64.503450
 30
0.0
 10
112.485921
 20
64.789240
 30
0.0
 10
111.876176
 20
64.789240
 30
0.0
 10
111.381329
 20
64.503450
 30
0.0
  0
SPLINE
  5
146
100
AcDbEntity
  8
0
 62
7
100
AcDbSpline
 70
8
 71
3
 72
8
 73
4
 74
0
 40
0
 40
0
 40
0
 40
0
 40
1
 40
1
 40
1
 40
1
 10
111.381329
 20
64.503450
 30
0.0
 10
110.886481
 20
64.217660
 30
0.0
 10
110.581753
 20
63.689524
 30
0.0
 10
110.581985
 20
63.118078
 30
0.0
  0
SPLINE
  5
147
100
AcDbEntity
  8
0
 62
7
100
AcDbSpline
 70
8
 71
3
 72
8
 73
4
 74
0
 40
0
 40
0
 40
0
 40
0
 40
1
 40
1
 40
1
 40
1
 10
110.581985
 20
63.118078
 30
0.0
 10
110.581753
 20
62.546633
 30
0.0
 10
110.886481
 20
62.018496
 30
0.0
 10
111.381329
 20
61.732706
 30
0.0
  0
SPLINE
  5
148
100
AcDbEntity
  8
0
 62
7
100
AcDbSpline
 70
8
 71
3
 72
8
 73
4
 74
0
 40
0
 40
0
 40
0
 40
0
 40
1
 40
1
 40
1
 40
1
 10
111.381329
 20
61.732706
 30
0.0
 10
111.876176
 20
61.446917
 30
0.0
 10
112.485921
 20
61.446917
 30
0.0
 10
112.980768
 20
61.732706
 30
0.0
  0
SPLINE
  5
149
100
AcDbEntity
  8
0
 62
7
100
AcDbSpline
 70
8
 71
3
 72
8
 73
4
 74
0
 40
0
 40
0
 40
0
 40
0
 40
1
 40
1
 40
1
 40
1
 10
112.980768
 20
61.732706
 30
0.0
 10
113.475616
 20
62.018496
 30
0.0
 10
113.780345
 20
62.546633
 30
0.0
 10
113.780112
 20
63.118078
 30
0.0
  0
LWPOLYLINE
  5
14a
100
AcDbEntity
  8
0
 62
7
100
AcDbPolyline
 90
1
 70
1
 10
57.200357
 20
52.651739
 30
0.0
  0
SPLINE
  5
14b
100
AcDbEntity
  8
0
 62
7
100
AcDbSpline
 70
8
 71
3
 72
8
 73
4
 74
0
 40
0
 40
0
 40
0
 40
0
 40
1
 40
1
 40
1
 40
1
 10
164.178211
 20
85.837661
 30
0.0
 10
164.178444
 20
86.409106
 30
0.0
 10
163.873715
 20
86.937243
 30
0.0
 10
163.378868
 20
87.223033
 30
0.0
  0
SPLINE
  5
14c
100
AcDbEntity
  8
0
 62
7
100
AcDbSpline
 70
8
 71
3
 72
8
 73
4
 74
0
 40
0
 40
0
 40
0
 40
0
 40
1
 40
1
 40
1
 40
1
 10
163.378868
 20
87.223033
 30
0.0
 10
162.884020
 20
87.508822
 30
0.0
 10
162.274276
 20
87.508822
 30
0.0
 10
161.779428
 20
87.223033
 30
0.0
  0
SPLINE
  5
14d
100
AcDbEntity
  8
0
 62
7
100
AcDbSpline
 70
8
 71
3
 72
8
 73
4
 74
0
 40
0
 40
0
 40
0
 40
0
 40
1
 40
1
 40
1
 40
1
 10
161.779428
 20
87.223033
 30
0.0
 10
161.284581
 20
86.937243
 30
0.0
 10
160.979852
 20
86.409106
 30
0.0
 10
160.980084
 20
85.837661
 30
0.0
  0
SPLINE
  5
14e
100
AcDbEntity
  8
0
 62
7
100
AcDbSpline
 70
8
 71
3
 72
8
 73
4
 74
0
 40
0
 40
0
 40
0
 40
0
 40
1
 40
1
 40
1
 40
1
 10
160.980084
 20
85.837661
 30
0.0
 10
160.979852
 20
85.266216
 30
0.0
 10
161.284581
 20
84.738079
 30
0.0
 10
161.779428
 20
84.452289
 30
0.0
  0
SPLINE
  5
14f
100
AcDbEntity
  8
0
 62
7
100
AcDbSpline
 70
8
 71
3
 72
8
 73
4
 74
0
 40
0
 40
0
 40
0
 40
0
 40
1
 40
1
 40
1
 40
1
 10
161.779428
 20
84.452289
 30
0.0
 10
162.274276
 20
84.166499
 30
0.0
 10
162.884020
 20
84.166499
 30
0.0
 10
163.378868
 20
84.452289
 30
0.0
  0
SPLINE
  5
150
100
AcDbEntity
  8
0
 62
7
100
AcDbSpline
 70
8
 71
3
 72
8
 73
4
 74
0
 40
0
 40
0
 40
0
 40
0
 40
1
 40
1
 40
1
 40
1
 10
163.378868
 20
84.452289
 30
0.0
 10
163.873715
 20
84.738079
 30
0.0
 10
164.178444
 20
85.266216
 30
0.0
 10
164.178211
 20
85.837661
 30
0.0
  0
LWPOLYLINE
  5
151
100
AcDbEntity
  8
0
 62
7
100
AcDbPolyline
 90
1
 70
1
 10
113.780112
 20
63.118078
 30
0.0
  0
SPLINE
  5
152
100
AcDbEntity
  8
0
 62
7
100
AcDbSpline
 70
8
 71
3
 72
8
 73
4
 74
0
 40
0
 40
0
 40
0
 40
0
 40
1
 40
1
 40
1
 40
1
 10
319.750032
 20
71.910473
 30
0.0
 10
319.750265
 20
72.481918
 30
0.0
 10
319.445536
 20
73.010055
 30
0.0
 10
318.950688
 20
73.295845
 30
0.0
  0
SPLINE
  5
153
100
AcDbEntity
  8
0
 62
7
100
AcDbSpline
 70
8
 71
3
 72
8
 73
4
 74
0
 40
0
 40
0
 40
0
 40
0
 40
1
 40
1
 40
1
 40
1
 10
318.950688
 20
73.295845
 30
0.0
 10
318.455841
 20
73.581634
 30
0.0
 10
317.846097
 20
73.581634
 30
0.0
 10
317.351249
 20
73.295845
 30
0.0
  0
SPLINE
  5
154
100
AcDbEntity
  8
0
 62
7
100
AcDbSpline
 70
8
 71
3
 72
8
 73
4
 74
0
 40
0
 40
0
 40
0
 40
0
 40
1
 40
1
 40
1
 40
1
 10
317.351249
 20
73.295845
 30
0.0
 10
316.856402
 20
73.010055
 30
0.0
 10
316.551673
 20
72.481918
 30
0.0
 10
316.551905
 20
71.910473
 30
0.0
  0
SPLINE
  5
155
100
AcDbEntity
  8
0
 62
7
100
AcDbSpline
 70
8
 71
3
 72
8
 73
4
 74
0
 40
0
 40
0
 40
0
 40
0
 40
1
 40
1
 40
1
 40
1
 10
316.551905
 20
71.910473
 30
0.0
 10
316.551673
 20
71.339028
 30
0.0
 10
316.856402
 20
70.810891
 30
0.0
 10
317.351249
 20
70.525101
 30
0.0
  0
SPLINE
  5
156
100
AcDbEntity
  8
0
 62
7
100
AcDbSpline
 70
8
 71
3
 72
8
 73
4
 74
0
 40
0
 40
0
 40
0
 40
0
 40
1
 40
1
 40
1
 40
1
 10
317.351249
 20
70.525101
 30
0.0
 10
317.846097
 20
70.239311
 30
0.0
 10
318.455841
 20
70.239311
 30
0.0
 10
318.950688
 20
70.525101
 30
0.0
  0
SPLINE
  5
157
100
AcDbEntity
  8
0
 62
7
100
AcDbSpline
 70
8
 71
3
 72
8
 73
4
 74
0
 40
0
 40
0
 40
0
 40
0
 40
1
 40
1
 40
1
 40
1
 10
318.950688
 20
70.525101
 30
0.0
 10
319.445536
 20
70.810891
 30
0.0
 10
319.750265
 20
71.339028
 30
0.0
 10
319.750032
 20
71.910473
 30
0.0
  0
LWPOLYLINE
  5
158
100
AcDbEntity
  8
0
 62
7
100
AcDbPolyline
 90
1
 70
1
 10
164.178211
 20
85.837661
 30
0.0
  0
SPLINE
  5
159
100
AcDbEntity
  8
0
 62
7
100
AcDbSpline
 70
8
 71
3
 72
8
 73
4
 74
0
 40
0
 40
0
 40
0
 40
0
 40
1
 40
1
 40
1
 40
1
 10
270.733906
 20
154.931897
 30
0.0
 10
270.733906
 20
155.503188
 30
0.0
 10
270.429126
 20
156.031082
 30
0.0
 10
269.934374
 20
156.316727
 30
0.0
  0
SPLINE
  5
15a
100
AcDbEntity
  8
0
 62
7
100
AcDbSpline
 70
8
 71
3
 72
8
 73
4
 74
0
 40
0
 40
0
 40
0
 40
0
 40
1
 40
1
 40
1
 40
1
 10
269.934374
 20
156.316727
 30
0.0
 10
269.439622
 20
156.602372
 30
0.0
 10
268.830062
 20
156.602372
 30
0.0
 10
268.335310
 20
156.316727
 30
0.0
  0
SPLINE
  5
15b
100
AcDbEntity
  8
0
 62
7
100
AcDbSpline
 70
8
 71
3
 72
8
 73
4
 74
0
 40
0
 40
0
 40
0
 40
0
 40
1
 40
1
 40
1
 40
1
 10
268.335310
 20
156.316727
 30
0.0
 10
267.840558
 20
156.031082
 30
0.0
 10
267.535778
 20
155.503188
 30
0.0
 10
267.535778
 20
154.931897
 30
0.0
  0
SPLINE
  5
15c
100
AcDbEntity
  8
0
 62
7
100
AcDbSpline
 70
8
 71
3
 72
8
 73
4
 74
0
 40
0
 40
0
 40
0
 40
0
 40
1
 40
1
 40
1
 40
1
 10
267.535778
 20
154.931897
 30
0.0
 10
267.535778
 20
154.360607
 30
0.0
 10
267.840558
 20
153.832713
 30
0.0
 10
268.335310
 20
153.547067
 30
0.0
  0
SPLINE
  5
15d
100
AcDbEntity
  8
0
 62
7
100
AcDbSpline
 70
8
 71
3
 72
8
 73
4
 74
0
 40
0
 40
0
 40
0
 40
0
 40
1
 40
1
 40
1
 40
1
 10
268.335310
 20
153.547067
 30
0.0
 10
268.830062
 20
153.261422
 30
0.0
 10
269.439622
 20
153.261422
 30
0.0
 10
269.934374
 20
153.547067
 30
0.0
  0
SPLINE
  5
15e
100
AcDbEntity
  8
0
 62
7
100
AcDbSpline
 70
8
 71
3
 72
8
 73
4
 74
0
 40
0
 40
0
 40
0
 40
0
 40
1
 40
1
 40
1
 40
1
 10
269.934374
 20
153.547067
 30
0.0
 10
270.429126
 20
153.832713
 30
0.0
 10
270.733906
 20
154.360607
 30
0.0
 10
270.733906
 20
154.931897
 30
0.0
  0
LWPOLYLINE
  5
15f
100
AcDbEntity
  8
0
 62
7
100
AcDbPolyline
 90
1
 70
1
 10
319.750032
 20
71.910473
 30
0.0
  0
SPLINE
  5
160
100
AcDbEntity
  8
0
 62
7
100
AcDbSpline
 70
8
 71
3
 72
8
 73
4
 74
0
 40
0
 40
0
 40
0
 40
0
 40
1
 40
1
 40
1
 40
1
 10
148.927035
 20
257.673014
 30
0.0
 10
148.927035
 20
258.244304
 30
0.0
 10
148.622255
 20
258.772198
 30
0.0
 10
148.127503
 20
259.057844
 30
0.0
  0
SPLINE
  5
161
100
AcDbEntity
  8
0
 62
7
100
AcDbSpline
 70
8
 71
3
 72
8
 73
4
 74
0
 40
0
 40
0
 40
0
 40
0
 40
1
 40
1
 40
1
 40
1
 10
148.127503
 20
259.057844
 30
0.0
 10
147.632751
 20
259.343489
 30
0.0
 10
147.023192
 20
259.343489
 30
0.0
 10
146.528440
 20
259.057844
 30
0.0
  0
SPLINE
  5
162
100
AcDbEntity
  8
0
 62
7
100
AcDbSpline
 70
8
 71
3
 72
8
 73
4
 74
0
 40
0
 40
0
 40
0
 40
0
 40
1
 40
1
 40
1
 40
1
 10
146.528440
 20
259.057844
 30
0.0
 10
146.033688
 20
258.772198
 30
0.0
 10
145.728908
 20
258.244304
 30
0.0
 10
145.728908
 20
257.673014
 30
0.0
  0
SPLINE
  5
163
100
AcDbEntity
  8
0
 62
7
100
AcDbSpline
 70
8
 71
3
 72
8
 73
4
 74
0
 40
0
 40
0
 40
0
 40
0
 40
1
 40
1
 40
1
 40
1
 10
145.728908
 20
257.673014
 30
0.0
 10
145.728908
 20
257.101723
 30
0.0
 10
146.033688
 20
256.573829
 30
0.0
 10
146.528440
 20
256.288184
 30
0.0
  0
SPLINE
  5
164
100
AcDbEntity
  8
0
 62
7
100
AcDbSpline
 70
8
 71
3
 72
8
 73
4
 74
0
 40
0
 40
0
 40
0
 40
0
 40
1
 40
1
 40
1
 40
1
 10
146.528440
 20
256.288184
 30
0.0
 10
147.023192
 20
256.002539
 30
0.0
 10
147.632751
 20
256.002539
 30
0.0
 10
148.127503
 20
256.288184
 30
0.0
  0
SPLINE
  5
165
100
AcDbEntity
  8
0
 62
7
100
AcDbSpline
 70
8
 71
3
 72
8
 73
4
 74
0
 40
0
 40
0
 40
0
 40
0
 40
1
 40
1
 40
1
 40
1
 10
148.127503
 20
256.288184
 30
0.0
 10
148.622255
 20
256.573829
 30
0.0
 10
148.927035
 20
257.101723
 30
0.0
 10
148.927035
 20
257.673014
 30
0.0
  0
LWPOLYLINE
  5
166
100
AcDbEntity
  8
0
 62
7
100
AcDbPolyline
 90
1
 70
1
 10
270.733906
 20
154.931897
 30
0.0
  0
SPLINE
  5
167
100
AcDbEntity
  8
0
 62
7
100
AcDbSpline
 70
8
 71
3
 72
8
 73
4
 74
0
 40
0
 40
0
 40
0
 40
0
 40
1
 40
1
 40
1
 40
1
 10
200.480466
 20
240.853103
 30
0.0
 10
200.480466
 20
241.424393
 30
0.0
 10
200.175686
 20
241.952287
 30
0.0
 10
199.680934
 20
242.237932
 30
0.0
  0
SPLINE
  5
168
100
AcDbEntity
  8
0
 62
7
100
AcDbSpline
 70
8
 71
3
 72
8
 73
4
 74
0
 40
0
 40
0
 40
0
 40
0
 40
1
 40
1
 40
1
 40
1
 10
199.680934
 20
242.237932
 30
0.0
 10
199.186182
 20
242.523578
 30
0.0
 10
198.576623
 20
242.523578
 30
0.0
 10
198.081871
 20
242.237932
 30
0.0
  0
SPLINE
  5
169
100
AcDbEntity
  8
0
 62
7
100
AcDbSpline
 70
8
 71
3
 72
8
 73
4
 74
0
 40
0
 40
0
 40
0
 40
0
 40
1
 40
1
 40
1
 40
1
 10
198.081871
 20
242.237932
 30
0.0
 10
197.587119
 20
241.952287
 30
0.0
 10
197.282339
 20
241.424393
 30
0.0
 10
197.282339
 20
240.853103
 30
0.0
  0
SPLINE
  5
16a
100
AcDbEntity
  8
0
 62
7
100
AcDbSpline
 70
8
 71
3
 72
8
 73
4
 74
0
 40
0
 40
0
 40
0
 40
0
 40
1
 40
1
 40
1
 40
1
 10
197.282339
 20
240.853103
 30
0.0
 10
197.282339
 20
240.281812
 30
0.0
 10
197.587119
 20
239.753918
 30
0.0
 10
198.081871
 20
239.468273
 30
0.0
  0
SPLINE
  5
16b
100
AcDbEntity
  8
0
 62
7
100
AcDbSpline
 70
8
 71
3
 72
8
 73
4
 74
0
 40
0
 40
0
 40
0
 40
0
 40
1
 40
1
 40
1
 40
1
 10
198.081871
 20
239.468273
 30
0.0
 10
198.576623
 20
239.182627
 30
0.0
 10
199.186182
 20
239.182627
 30
0.0
 10
199.680934
 20
239.468273
 30
0.0
  0
SPLINE
  5
16c
100
AcDbEntity
  8
0
 62
7
100
AcDbSpline
 70
8
 71
3
 72
8
 73
4
 74
0
 40
0
 40
0
 40
0
 40
0
 40
1
 40
1
 40
1
 40
1
 10
199.680934
 20
239.468273
 30
0.0
 10
200.175687
 20
239.753918
 30
0.0
 10
200.480466
 20
240.281812
 30
0.0
 10
200.480466
 20
240.853103
 30
0.0
  0
LWPOLYLINE
  5
16d
100
AcDbEntity
  8
0
 62
7
100
AcDbPolyline
 90
1
 70
1
 10
148.927035
 20
257.673014
 30
0.0
  0
SPLINE
  5
16e
100
AcDbEntity
  8
0
 62
7
100
AcDbSpline
 70
8
 71
3
 72
8
 73
4
 74
0
 40
0
 40
0
 40
0
 40
0
 40
1
 40
1
 40
1
 40
1
 10
97.068279
 20
240.554981
 30
0.0
 10
97.068512
 20
241.126427
 30
0.0
 10
96.763783
 20
241.654563
 30
0.0
 10
96.268935
 20
241.940353
 30
0.0
  0
SPLINE
  5
16f
100
AcDbEntity
  8
0
 62
7
100
AcDbSpline
 70
8
 71
3
 72
8
 73
4
 74
0
 40
0
 40
0
 40
0
 40
0
 40
1
 40
1
 40
1
 40
1
 10
96.268935
 20
241.940353
 30
0.0
 10
95.774088
 20
242.226143
 30
0.0
 10
95.164343
 20
242.226143
 30
0.0
 10
94.669496
 20
241.940353
 30
0.0
  0
SPLINE
  5
170
100
AcDbEntity
  8
0
 62
7
100
AcDbSpline
 70
8
 71
3
 72
8
 73
4
 74
0
 40
0
 40
0
 40
0
 40
0
 40
1
 40
1
 40
1
 40
1
 10
94.669496
 20
241.940353
 30
0.0
 10
94.174649
 20
241.654563
 30
0.0
 10
93.869920
 20
241.126427
 30
0.0
 10
93.870152
 20
240.554981
 30
0.0
  0
SPLINE
  5
171
100
AcDbEntity
  8
0
 62
7
100
AcDbSpline
 70
8
 71
3
 72
8
 73
4
 74
0
 40
0
 40
0
 40
0
 40
0
 40
1
 40
1
 40
1
 40
1
 10
93.870152
 20
240.554981
 30
0.0
 10
93.869920
 20
239.983536
 30
0.0
 10
94.174649
 20
239.455399
 30
0.0
 10
94.669496
 20
239.169609
 30
0.0
  0
SPLINE
  5
172
100
AcDbEntity
  8
0
 62
7
100
AcDbSpline
 70
8
 71
3
 72
8
 73
4
 74
0
 40
0
 40
0
 40
0
 40
0
 40
1
 40
1
 40
1
 40
1
 10
94.669496
 20
239.169609
 30
0.0
 10
95.164343
 20
238.883820
 30
0.0
 10
95.774088
 20
238.883820
 30
0.0
 10
96.268935
 20
239.169609
 30
0.0
  0
SPLINE
  5
173
100
AcDbEntity
  8
0
 62
7
100
AcDbSpline
 70
8
 71
3
 72
8
 73
4
 74
0
 40
0
 40
0
 40
0
 40
0
 40
1
 40
1
 40
1
 40
1
 10
96.268935
 20
239.169609
 30
0.0
 10
96.763783
 20
239.455399
 30
0.0
 10
97.068512
 20
239.983536
 30
0.0
 10
97.068279
 20
240.554981
 30
0.0
  0
LWPOLYLINE
  5
174
100
AcDbEntity
  8
0
 62
7
100
AcDbPolyline
 90
1
 70
1
 10
200.480466
 20
240.853103
 30
0.0
  0
SPLINE
  5
175
100
AcDbEntity
  8
0
 62
7
100
AcDbSpline
 70
8
 71
3
 72
8
 73
4
 74
0
 40
0
 40
0
 40
0
 40
0
 40
1
 40
1
 40
1
 40
1
 10
302.536366
 20
236.428556
 30
0.0
 10
302.536366
 20
236.999846
 30
0.0
 10
302.231586
 20
237.527740
 30
0.0
 10
301.736834
 20
237.813385
 30
0.0
  0
SPLINE
  5
176
100
AcDbEntity
  8
0
 62
7
100
AcDbSpline
 70
8
 71
3
 72
8
 73
4
 74
0
 40
0
 40
0
 40
0
 40
0
 40
1
 40
1
 40
1
 40
1
 10
301.736834
 20
237.813385
 30
0.0
 10
301.242082
 20
238.099031
 30
0.0
 10
300.632522
 20
238.099031
 30
0.0
 10
300.137770
 20
237.813385
 30
0.0
  0
SPLINE
  5
177
100
AcDbEntity
  8
0
 62
7
100
AcDbSpline
 70
8
 71
3
 72
8
 73
4
 74
0
 40
0
 40
0
 40
0
 40
0
 40
1
 40
1
 40
1
 40
1
 10
300.137770
 20
237.813385
 30
0.0
 10
299.643018
 20
237.527740
 30
0.0
 10
299.338238
 20
236.999846
 30
0.0
 10
299.338238
 20
236.428556
 30
0.0
  0
SPLINE
  5
178
100
AcDbEntity
  8
0
 62
7
100
AcDbSpline
 70
8
 71
3
 72
8
 73
4
 74
0
 40
0
 40
0
 40
0
 40
0
 40
1
 40
1
 40
1
 40
1
 10
299.338238
 20
236.428556
 30
0.0
 10
299.338238
 20
235.857265
 30
0.0
 10
299.643018
 20
235.329371
 30
0.0
 10
300.137770
 20
235.043726
 30
0.0
  0
SPLINE
  5
179
100
AcDbEntity
  8
0
 62
7
100
AcDbSpline
 70
8
 71
3
 72
8
 73
4
 74
0
 40
0
 40
0
 40
0
 40
0
 40
1
 40
1
 40
1
 40
1
 10
300.137770
 20
235.043726
 30
0.0
 10
300.632522
 20
234.758081
 30
0.0
 10
301.242082
 20
234.758081
 30
0.0
 10
301.736834
 20
235.043726
 30
0.0
  0
SPLINE
  5
17a
100
AcDbEntity
  8
0
 62
7
100
AcDbSpline
 70
8
 71
3
 72
8
 73
4
 74
0
 40
0
 40
0
 40
0
 40
0
 40
1
 40
1
 40
1
 40
1
 10
301.736834
 20
235.043726
 30
0.0
 10
302.231586
 20
235.329371
 30
0.0
 10
302.536366
 20
235.857265
 30
0.0
 10
302.536366
 20
236.428556
 30
0.0
  0
LWPOLYLINE
  5
17b
100
AcDbEntity
  8
0
 62
7
100
AcDbPolyline
 90
1
 70
1
 10
97.068279
 20
240.554981
 30
0.0
  0
SPLINE
  5
17c
100
AcDbEntity
  8
0
 62
7
100
AcDbSpline
 70
8
 71
3
 72
8
 73
4
 74
0
 40
0
 40
0
 40
0
 40
0
 40
1
 40
1
 40
1
 40
1
 10
259.437481
 20
78.669741
 30
0.0
 10
259.437713
 20
79.241187
 30
0.0
 10
259.132984
 20
79.769323
 30
0.0
 10
258.638137
 20
80.055113
 30
0.0
  0
SPLINE
  5
17d
100
AcDbEntity
  8
0
 62
7
100
AcDbSpline
 70
8
 71
3
 72
8
 73
4
 74
0
 40
0
 40
0
 40
0
 40
0
 40
1
 40
1
 40
1
 40
1
 10
258.638137
 20
80.055113
 30
0.0
 10
258.143289
 20
80.340903
 30
0.0
 10
257.533545
 20
80.340903
 30
0.0
 10
257.038698
 20
80.055113
 30
0.0
  0
SPLINE
  5
17e
100
AcDbEntity
  8
0
 62
7
100
AcDbSpline
 70
8
 71
3
 72
8
 73
4
 74
0
 40
0
 40
0
 40
0
 40
0
 40
1
 40
1
 40
1
 40
1
 10
257.038698
 20
80.055113
 30
0.0
 10
256.543850
 20
79.769323
 30
0.0
 10
256.239121
 20
79.241187
 30
0.0
 10
256.239354
 20
78.669741
 30
0.0
  0
SPLINE
  5
17f
100
AcDbEntity
  8
0
 62
7
100
AcDbSpline
 70
8
 71
3
 72
8
 73
4
 74
0
 40
0
 40
0
 40
0
 40
0
 40
1
 40
1
 40
1
 40
1
 10
256.239354
 20
78.669741
 30
0.0
 10
256.239121
 20
78.098296
 30
0.0
 10
256.543850
 20
77.570159
 30
0.0
 10
257.038698
 20
77.284370
 30
0.0
  0
SPLINE
  5
180
100
AcDbEntity
  8
0
 62
7
100
AcDbSpline
 70
8
 71
3
 72
8
 73
4
 74
0
 40
0
 40
0
 40
0
 40
0
 40
1
 40
1
 40
1
 40
1
 10
257.038698
 20
77.284370
 30
0.0
 10
257.533545
 20
76.998580
 30
0.0
 10
258.143289
 20
76.998580
 30
0.0
 10
258.638137
 20
77.284370
 30
0.0
  0
SPLINE
  5
181
100
AcDbEntity
  8
0
 62
7
100
AcDbSpline
 70
8
 71
3
 72
8
 73
4
 74
0
 40
0
 40
0
 40
0
 40
0
 40
1
 40
1
 40
1
 40
1
 10
258.638137
 20
77.284370
 30
0.0
 10
259.132984
 20
77.570159
 30
0.0
 10
259.437713
 20
78.098296
 30
0.0
 10
259.437481
 20
78.669741
 30
0.0
  0
LWPOLYLINE
  5
182
100
AcDbEntity
  8
0
 62
7
100
AcDbPolyline
 90
1
 70
1
 10
302.536366
 20
236.428556
 30
0.0
  0
LWPOLYLINE
  5
183
100
AcDbEntity
  8
0
 62
7
100
AcDbPolyline
 90
1
 70
1
 10
259.437481
 20
78.669741
 30
0.0
  0
LWPOLYLINE
  5
184
100
AcDbEntity
  8
0
 62
7
100
AcDbPolyline
 90
2
 70
0
 10
330.853512
 20
76.493802
 30
0.0
 10
330.783430
 20
76.530039
 30
0.0
  0
LWPOLYLINE
  5
185
100
AcDbEntity
  8
0
 62
7
100
AcDbPolyline
 90
2
 70
0
 10
101.468622
 20
224.999773
 30
0.0
 10
101.468622
 20
155.093592
 30
0.0
  0
LWPOLYLINE
  5
186
100
AcDbEntity
  8
0
 62
7
100
AcDbPolyline
 90
2
 70
0
 10
98.267351
 20
151.892320
 30
0.0
 10
89.349448
 20
151.892320
 30
0.0
  0
LWPOLYLINE
  5
187
100
AcDbEntity
  8
0
 62
7
100
AcDbPolyline
 90
2
 70
0
 10
86.718327
 20
228.010241
 30
0.0
 10
98.487247
 20
228.010241
 30
0.0
  0
SPLINE
  5
188
100
AcDbEntity
  8
0
 62
7
100
AcDbSpline
 70
8
 71
3
 72
8
 73
4
 74
0
 40
0
 40
0
 40
0
 40
0
 40
1
 40
1
 40
1
 40
1
 10
98.267351
 20
151.892320
 30
0.0
 10
100.035364
 20
151.892320
 30
0.0
 10
101.468622
 20
153.325578
 30
0.0
 10
101.468622
 20
155.093592
 30
0.0
  0
LWPOLYLINE
  5
189
100
AcDbEntity
  8
0
 62
7
100
AcDbPolyline
 90
2
 70
0
 10
86.718327
 20
228.010241
 30
0.0
 10
86.668660
 20
228.048327
 30
0.0
  0
SPLINE
  5
18a
100
AcDbEntity
  8
0
 62
7
100
AcDbSpline
 70
8
 71
3
 72
8
 73
4
 74
0
 40
0
 40
0
 40
0
 40
0
 40
1
 40
1
 40
1
 40
1
 10
154.558587
 20
222.621137
 30
0.0
 10
153.980527
 20
223.945680
 30
0.0
 10
152.644970
 20
224.776041
 30
0.0
 10
151.201364
 20
224.708436
 30
0.0
  0
SPLINE
  5
18b
100
AcDbEntity
  8
0
 62
7
100
AcDbSpline
 70
8
 71
3
 72
8
 73
4
 74
0
 40
0
 40
0
 40
0
 40
0
 40
1
 40
1
 40
1
 40
1
 10
116.560646
 20
156.876353
 30
0.0
 10
117.558130
 20
155.579482
 30
0.0
 10
119.130260
 20
154.856970
 30
0.0
 10
120.764020
 20
154.944586
 30
0.0
  0
LWPOLYLINE
  5
18c
100
AcDbEntity
  8
0
 62
7
100
AcDbPolyline
 90
2
 70
0
 10
280.048690
 20
218.210651
 30
0.0
 10
304.161166
 20
218.210651
 30
0.0
  0
SPLINE
  5
18d
100
AcDbEntity
  8
0
 62
7
100
AcDbSpline
 70
8
 71
3
 72
8
 73
4
 74
0
 40
0
 40
0
 40
0
 40
0
 40
1
 40
1
 40
1
 40
1
 10
151.256525
 20
154.944586
 30
0.0
 10
152.610957
 20
154.944586
 30
0.0
 10
153.856745
 20
155.685924
 30
0.0
 10
154.502781
 20
156.876353
 30
0.0
  0
LWPOLYLINE
  5
18e
100
AcDbEntity
  8
0
 62
7
100
AcDbPolyline
 90
2
 70
0
 10
120.764020
 20
154.944586
 30
0.0
 10
151.256525
 20
154.944586
 30
0.0
  0
SPLINE
  5
18f
100
AcDbEntity
  8
0
 62
7
100
AcDbSpline
 70
8
 71
3
 72
8
 73
4
 74
0
 40
0
 40
0
 40
0
 40
0
 40
1
 40
1
 40
1
 40
1
 10
120.911746
 20
224.708436
 30
0.0
 10
119.219908
 20
224.708436
 30
0.0
 10
117.619477
 20
223.940682
 30
0.0
 10
116.560646
 20
222.621139
 30
0.0
  0
LWPOLYLINE
  5
190
100
AcDbEntity
  8
0
 62
7
100
AcDbPolyline
 90
2
 70
0
 10
120.911746
 20
224.708436
 30
0.0
 10
151.201364
 20
224.708436
 30
0.0
  0
LWPOLYLINE
  5
191
100
AcDbEntity
  8
0
 62
7
100
AcDbPolyline
 90
2
 70
0
 10
116.560646
 20
222.621139
 30
0.0
 10
116.560646
 20
156.876353
 30
0.0
  0
SPLINE
  5
192
100
AcDbEntity
  8
0
 62
7
100
AcDbSpline
 70
8
 71
3
 72
8
 73
4
 74
0
 40
0
 40
0
 40
0
 40
0
 40
1
 40
1
 40
1
 40
1
 10
86.668660
 20
228.048327
 30
0.0
 10
86.587880
 20
230.201206
 30
0.0
 10
86.548093
 20
232.355428
 30
0.0
 10
86.549320
 20
234.509822
 30
0.0
  0
SPLINE
  5
193
100
AcDbEntity
  8
0
 62
7
100
AcDbSpline
 70
8
 71
3
 72
8
 73
4
 74
0
 40
0
 40
0
 40
0
 40
0
 40
1
 40
1
 40
1
 40
1
 10
86.549320
 20
234.509822
 30
0.0
 10
86.653256
 20
239.598202
 30
0.0
 10
88.266464
 20
244.541013
 30
0.0
 10
91.184235
 20
248.711029
 30
0.0
  0
SPLINE
  5
194
100
AcDbEntity
  8
0
 62
7
100
AcDbSpline
 70
8
 71
3
 72
8
 73
4
 74
0
 40
0
 40
0
 40
0
 40
0
 40
1
 40
1
 40
1
 40
1
 10
91.184235
 20
248.711029
 30
0.0
 10
93.253503
 20
251.732221
 30
0.0
 10
95.841912
 20
254.362709
 30
0.0
 10
98.829347
 20
256.480423
 30
0.0
  0
SPLINE
  5
195
100
AcDbEntity
  8
0
 62
7
100
AcDbSpline
 70
8
 71
3
 72
8
 73
4
 74
0
 40
0
 40
0
 40
0
 40
0
 40
1
 40
1
 40
1
 40
1
 10
98.829347
 20
256.480423
 30
0.0
 10
105.177904
 20
260.941524
 30
0.0
 10
112.451535
 20
263.912100
 30
0.0
 10
120.108005
 20
265.170700
 30
0.0
  0
SPLINE
  5
196
100
AcDbEntity
  8
0
 62
7
100
AcDbSpline
 70
8
 71
3
 72
8
 73
4
 74
0
 40
0
 40
0
 40
0
 40
0
 40
1
 40
1
 40
1
 40
1
 10
120.108005
 20
265.170700
 30
0.0
 10
123.074930
 20
265.688434
 30
0.0
 10
126.067776
 20
266.044705
 30
0.0
 10
129.073330
 20
266.237940
 30
0.0
  0
SPLINE
  5
197
100
AcDbEntity
  8
0
 62
7
100
AcDbSpline
 70
8
 71
3
 72
8
 73
4
 74
0
 40
0
 40
0
 40
0
 40
0
 40
1
 40
1
 40
1
 40
1
 10
129.073330
 20
266.237940
 30
0.0
 10
137.699596
 20
266.939228
 30
0.0
 10
146.382504
 20
266.238050
 30
0.0
 10
154.784462
 20
264.161668
 30
0.0
  0
SPLINE
  5
198
100
AcDbEntity
  8
0
 62
7
100
AcDbSpline
 70
8
 71
3
 72
8
 73
4
 74
0
 40
0
 40
0
 40
0
 40
0
 40
1
 40
1
 40
1
 40
1
 10
154.784462
 20
264.161668
 30
0.0
 10
159.042475
 20
263.142790
 30
0.0
 10
163.254341
 20
261.939891
 30
0.0
 10
167.408208
 20
260.556356
 30
0.0
  0
SPLINE
  5
199
100
AcDbEntity
  8
0
 62
7
100
AcDbSpline
 70
8
 71
3
 72
8
 73
4
 74
0
 40
0
 40
0
 40
0
 40
0
 40
1
 40
1
 40
1
 40
1
 10
167.408208
 20
260.556356
 30
0.0
 10
179.353834
 20
255.623045
 30
0.0
 10
191.444208
 20
251.047790
 30
0.0
 10
203.663145
 20
246.836717
 30
0.0
  0
SPLINE
  5
19a
100
AcDbEntity
  8
0
 62
7
100
AcDbSpline
 70
8
 71
3
 72
8
 73
4
 74
0
 40
0
 40
0
 40
0
 40
0
 40
1
 40
1
 40
1
 40
1
 10
203.663145
 20
246.836717
 30
0.0
 10
209.196218
 20
244.935726
 30
0.0
 10
214.816077
 20
243.297407
 30
0.0
 10
220.503900
 20
241.927248
 30
0.0
  0
SPLINE
  5
19b
100
AcDbEntity
  8
0
 62
7
100
AcDbSpline
 70
8
 71
3
 72
8
 73
4
 74
0
 40
0
 40
0
 40
0
 40
0
 40
1
 40
1
 40
1
 40
1
 10
220.503900
 20
241.927248
 30
0.0
 10
228.823030
 20
239.935241
 30
0.0
 10
237.338448
 20
238.877661
 30
0.0
 10
245.892120
 20
238.774135
 30
0.0
  0
SPLINE
  5
19c
100
AcDbEntity
  8
0
 62
7
100
AcDbSpline
 70
8
 71
3
 72
8
 73
4
 74
0
 40
0
 40
0
 40
0
 40
0
 40
1
 40
1
 40
1
 40
1
 10
245.892120
 20
238.774135
 30
0.0
 10
253.105799
 20
238.687328
 30
0.0
 10
260.317261
 20
239.080621
 30
0.0
 10
267.478716
 20
239.951407
 30
0.0
  0
SPLINE
  5
19d
100
AcDbEntity
  8
0
 62
7
100
AcDbSpline
 70
8
 71
3
 72
8
 73
4
 74
0
 40
0
 40
0
 40
0
 40
0
 40
1
 40
1
 40
1
 40
1
 10
267.478716
 20
239.951407
 30
0.0
 10
273.183614
 20
240.612622
 30
0.0
 10
278.859820
 20
241.501481
 30
0.0
 10
284.493756
 20
242.615856
 30
0.0
  0
SPLINE
  5
19e
100
AcDbEntity
  8
0
 62
7
100
AcDbSpline
 70
8
 71
3
 72
8
 73
4
 74
0
 40
0
 40
0
 40
0
 40
0
 40
1
 40
1
 40
1
 40
1
 10
284.493756
 20
242.615856
 30
0.0
 10
287.243981
 20
243.176533
 30
0.0
 10
289.977067
 20
243.818218
 30
0.0
 10
292.689449
 20
244.540076
 30
0.0
  0
SPLINE
  5
19f
100
AcDbEntity
  8
0
 62
7
100
AcDbSpline
 70
8
 71
3
 72
8
 73
4
 74
0
 40
0
 40
0
 40
0
 40
0
 40
1
 40
1
 40
1
 40
1
 10
292.689449
 20
244.540076
 30
0.0
 10
295.109204
 20
245.201497
 30
0.0
 10
297.575660
 20
245.678347
 30
0.0
 10
300.067577
 20
245.966517
 30
0.0
  0
SPLINE
  5
1a0
100
AcDbEntity
  8
0
 62
7
100
AcDbSpline
 70
8
 71
3
 72
8
 73
4
 74
0
 40
0
 40
0
 40
0
 40
0
 40
1
 40
1
 40
1
 40
1
 10
300.067577
 20
245.966517
 30
0.0
 10
302.601102
 20
246.274906
 30
0.0
 10
305.151133
 20
245.540022
 30
0.0
 10
307.131987
 20
243.930652
 30
0.0
  0
SPLINE
  5
1a1
100
AcDbEntity
  8
0
 62
7
100
AcDbSpline
 70
8
 71
3
 72
8
 73
4
 74
0
 40
0
 40
0
 40
0
 40
0
 40
1
 40
1
 40
1
 40
1
 10
307.131987
 20
243.930652
 30
0.0
 10
309.112841
 20
242.321283
 30
0.0
 10
310.354274
 20
239.975742
 30
0.0
 10
310.571158
 20
237.432750
 30
0.0
  0
SPLINE
  5
1a2
100
AcDbEntity
  8
0
 62
7
100
AcDbSpline
 70
8
 71
3
 72
8
 73
4
 74
0
 40
0
 40
0
 40
0
 40
0
 40
1
 40
1
 40
1
 40
1
 10
310.571158
 20
237.432750
 30
0.0
 10
310.731032
 20
235.996770
 30
0.0
 10
310.589730
 20
234.543231
 30
0.0
 10
310.156274
 20
233.164930
 30
0.0
  0
SPLINE
  5
1a3
100
AcDbEntity
  8
0
 62
7
100
AcDbSpline
 70
8
 71
3
 72
8
 73
4
 74
0
 40
0
 40
0
 40
0
 40
0
 40
1
 40
1
 40
1
 40
1
 10
310.156274
 20
233.164930
 30
0.0
 10
309.840962
 20
232.109630
 30
0.0
 10
309.463980
 20
231.073747
 30
0.0
 10
309.027272
 20
230.062625
 30
0.0
  0
SPLINE
  5
1a4
100
AcDbEntity
  8
0
 62
7
100
AcDbSpline
 70
8
 71
3
 72
8
 73
4
 74
0
 40
0
 40
0
 40
0
 40
0
 40
1
 40
1
 40
1
 40
1
 10
309.027272
 20
230.062625
 30
0.0
 10
307.862682
 20
227.429944
 30
0.0
 10
306.738184
 20
224.779709
 30
0.0
 10
305.654169
 20
222.112839
 30
0.0
  0
LWPOLYLINE
  5
1a5
100
AcDbEntity
  8
0
 62
7
100
AcDbPolyline
 90
2
 70
0
 10
154.502781
 20
156.876353
 30
0.0
 10
154.502781
 20
222.742599
 30
0.0
  0
LWPOLYLINE
  5
1a6
100
AcDbEntity
  8
0
 62
7
100
AcDbPolyline
 90
2
 70
0
 10
304.161166
 20
218.210651
 30
0.0
 10
304.207561
 20
218.210651
 30
0.0
  0
LWPOLYLINE
  5
1a7
100
AcDbEntity
  8
0
 62
7
100
AcDbPolyline
 90
2
 70
0
 10
305.654169
 20
222.112839
 30
0.0
 10
304.207561
 20
218.210651
 30
0.0
  0
SPLINE
  5
1a8
100
AcDbEntity
  8
0
 62
7
100
AcDbSpline
 70
8
 71
3
 72
8
 73
4
 74
0
 40
0
 40
0
 40
0
 40
0
 40
1
 40
1
 40
1
 40
1
 10
275.379252
 20
162.353757
 30
0.0
 10
277.115306
 20
161.837397
 30
0.0
 10
278.936371
 20
161.669640
 30
0.0
 10
280.737542
 20
161.860151
 30
0.0
  0
SPLINE
  5
1a9
100
AcDbEntity
  8
0
 62
7
100
AcDbSpline
 70
8
 71
3
 72
8
 73
4
 74
0
 40
0
 40
0
 40
0
 40
0
 40
1
 40
1
 40
1
 40
1
 10
136.781689
 20
151.021940
 30
0.0
 10
136.782306
 20
151.468933
 30
0.0
 10
136.544193
 20
151.882235
 30
0.0
 10
136.157189
 20
152.105909
 30
0.0
  0
SPLINE
  5
1aa
100
AcDbEntity
  8
0
 62
7
100
AcDbSpline
 70
8
 71
3
 72
8
 73
4
 74
0
 40
0
 40
0
 40
0
 40
0
 40
1
 40
1
 40
1
 40
1
 10
136.157189
 20
152.105909
 30
0.0
 10
135.770185
 20
152.329584
 30
0.0
 10
135.293197
 20
152.329584
 30
0.0
 10
134.906193
 20
152.105909
 30
0.0
  0
SPLINE
  5
1ab
100
AcDbEntity
  8
0
 62
7
100
AcDbSpline
 70
8
 71
3
 72
8
 73
4
 74
0
 40
0
 40
0
 40
0
 40
0
 40
1
 40
1
 40
1
 40
1
 10
134.906193
 20
152.105909
 30
0.0
 10
134.519189
 20
151.882235
 30
0.0
 10
134.281076
 20
151.468933
 30
0.0
 10
134.281693
 20
151.021940
 30
0.0
  0
SPLINE
  5
1ac
100
AcDbEntity
  8
0
 62
7
100
AcDbSpline
 70
8
 71
3
 72
8
 73
4
 74
0
 40
0
 40
0
 40
0
 40
0
 40
1
 40
1
 40
1
 40
1
 10
134.281693
 20
151.021940
 30
0.0
 10
134.281076
 20
150.574948
 30
0.0
 10
134.519189
 20
150.161646
 30
0.0
 10
134.906193
 20
149.937971
 30
0.0
  0
SPLINE
  5
1ad
100
AcDbEntity
  8
0
 62
7
100
AcDbSpline
 70
8
 71
3
 72
8
 73
4
 74
0
 40
0
 40
0
 40
0
 40
0
 40
1
 40
1
 40
1
 40
1
 10
134.906193
 20
149.937971
 30
0.0
 10
135.293197
 20
149.714297
 30
0.0
 10
135.770185
 20
149.714297
 30
0.0
 10
136.157189
 20
149.937971
 30
0.0
  0
SPLINE
  5
1ae
100
AcDbEntity
  8
0
 62
7
100
AcDbSpline
 70
8
 71
3
 72
8
 73
4
 74
0
 40
0
 40
0
 40
0
 40
0
 40
1
 40
1
 40
1
 40
1
 10
136.157189
 20
149.937971
 30
0.0
 10
136.544193
 20
150.161646
 30
0.0
 10
136.782306
 20
150.574948
 30
0.0
 10
136.781689
 20
151.021940
 30
0.0
  0
LWPOLYLINE
  5
1af
100
AcDbEntity
  8
0
 62
7
100
AcDbPolyline
 90
2
 70
0
 10
280.048690
 20
218.210651
 30
0.0
 10
277.048691
 20
218.210651
 30
0.0
  0
SPLINE
  5
1b0
100
AcDbEntity
  8
0
 62
7
100
AcDbSpline
 70
8
 71
3
 72
8
 73
4
 74
0
 40
0
 40
0
 40
0
 40
0
 40
1
 40
1
 40
1
 40
1
 10
136.781689
 20
228.771919
 30
0.0
 10
136.782306
 20
229.218911
 30
0.0
 10
136.544193
 20
229.632214
 30
0.0
 10
136.157189
 20
229.855888
 30
0.0
  0
SPLINE
  5
1b1
100
AcDbEntity
  8
0
 62
7
100
AcDbSpline
 70
8
 71
3
 72
8
 73
4
 74
0
 40
0
 40
0
 40
0
 40
0
 40
1
 40
1
 40
1
 40
1
 10
136.157189
 20
229.855888
 30
0.0
 10
135.770185
 20
230.079563
 30
0.0
 10
135.293197
 20
230.079563
 30
0.0
 10
134.906193
 20
229.855888
 30
0.0
  0
SPLINE
  5
1b2
100
AcDbEntity
  8
0
 62
7
100
AcDbSpline
 70
8
 71
3
 72
8
 73
4
 74
0
 40
0
 40
0
 40
0
 40
0
 40
1
 40
1
 40
1
 40
1
 10
134.906193
 20
229.855888
 30
0.0
 10
134.519189
 20
229.632214
 30
0.0
 10
134.281076
 20
229.218911
 30
0.0
 10
134.281693
 20
228.771919
 30
0.0
  0
SPLINE
  5
1b3
100
AcDbEntity
  8
0
 62
7
100
AcDbSpline
 70
8
 71
3
 72
8
 73
4
 74
0
 40
0
 40
0
 40
0
 40
0
 40
1
 40
1
 40
1
 40
1
 10
134.281693
 20
228.771919
 30
0.0
 10
134.281076
 20
228.324927
 30
0.0
 10
134.519189
 20
227.911624
 30
0.0
 10
134.906193
 20
227.687950
 30
0.0
  0
SPLINE
  5
1b4
100
AcDbEntity
  8
0
 62
7
100
AcDbSpline
 70
8
 71
3
 72
8
 73
4
 74
0
 40
0
 40
0
 40
0
 40
0
 40
1
 40
1
 40
1
 40
1
 10
134.906193
 20
227.687950
 30
0.0
 10
135.293197
 20
227.464275
 30
0.0
 10
135.770185
 20
227.464275
 30
0.0
 10
136.157189
 20
227.687950
 30
0.0
  0
SPLINE
  5
1b5
100
AcDbEntity
  8
0
 62
7
100
AcDbSpline
 70
8
 71
3
 72
8
 73
4
 74
0
 40
0
 40
0
 40
0
 40
0
 40
1
 40
1
 40
1
 40
1
 10
136.157189
 20
227.687950
 30
0.0
 10
136.544193
 20
227.911624
 30
0.0
 10
136.782306
 20
228.324927
 30
0.0
 10
136.781689
 20
228.771919
 30
0.0
  0
LWPOLYLINE
  5
1b6
100
AcDbEntity
  8
0
 62
7
100
AcDbPolyline
 90
1
 70
1
 10
136.781689
 20
151.021940
 30
0.0
  0
SPLINE
  5
1b7
100
AcDbEntity
  8
0
 62
7
100
AcDbSpline
 70
8
 71
3
 72
8
 73
4
 74
0
 40
0
 40
0
 40
0
 40
0
 40
1
 40
1
 40
1
 40
1
 10
98.474090
 20
228.010866
 30
0.0
 10
99.268321
 20
228.010867
 30
0.0
 10
100.030023
 20
227.693594
 30
0.0
 10
100.591630
 20
227.128847
 30
0.0
  0
SPLINE
  5
1b8
100
AcDbEntity
  8
0
 62
7
100
AcDbSpline
 70
8
 71
3
 72
8
 73
4
 74
0
 40
0
 40
0
 40
0
 40
0
 40
1
 40
1
 40
1
 40
1
 10
100.591630
 20
227.128847
 30
0.0
 10
101.153236
 20
226.564099
 30
0.0
 10
101.468744
 20
225.798136
 30
0.0
 10
101.468743
 20
224.999462
 30
0.0
  0
LWPOLYLINE
  5
1b9
100
AcDbEntity
  8
0
 62
7
100
AcDbPolyline
 90
1
 70
1
 10
136.781689
 20
228.771919
 30
0.0
  0
ENDSEC
  0
SECTION
  2
OBJECTS
  0
DICTIONARY
  5
C
330
0
100
AcDbDictionary
  3
ACAD_GROUP
350
D
  3
ACAD_MLINESTYLE
350
17
  0
DICTIONARY
  5
D
330
C
100
AcDbDictionary
  0
DICTIONARY
  5
1A
330
C
100
AcDbDictionary
  0
DICTIONARY
  5
17
330
C
100
AcDbDictionary
  3
STANDARD
350
18
  0
DICTIONARY
  5
19
330
C
100
AcDbDictionary
  0
ENDSEC
  0
EOF
