999
"DXF R12 Output" (www.mydxf.blogspot.com)
 0 
SECTION
 2 
HEADER
 9 
$ACADVER
 1 
AC1009
 9 
$EXTMIN
 10 
 0 
 20 
 0 
 9 
$EXTMAX
 10 
 8.5 
 20 
 11 
 0 
ENDSEC
 0 
SECTION
 2 
ENTITIES
0
LINE
8
Layer 1
10
0.846666
20
317.647000
11
-0.846666
21
315.953000
0
LINE
8
Layer 1
10
0.000000
20
318.211000
11
0.000000
21
315.389000
0
LINE
8
Layer 1
10
2.257780
20
315.671000
11
1.128890
21
314.542110
0
LINE
8
Layer 1
10
1.693330
20
316.236000
11
0.564440
21
315.107110
0
LINE
8
Layer 1
10
1.128890
20
316.800000
11
0.000000
21
315.671110
0
LINE
8
0
10
299.453000
20
172.651000
11
298.246875
21
169.291734
0
LINE
8
0
10
298.246875
20
169.291734
11
296.773750
21
165.644375
0
LINE
8
0
10
296.773750
20
165.644375
11
293.595000
21
158.025000
0
LINE
8
0
10
293.595000
20
158.025000
11
291.502203
21
152.446125
0
LINE
8
0
10
291.502203
20
152.446125
11
289.897375
21
147.011250
0
LINE
8
0
10
289.897375
20
147.011250
11
289.317822
21
144.310195
0
LINE
8
0
10
289.317822
20
144.310195
11
288.908109
21
141.600000
0
LINE
8
0
10
288.908109
20
141.600000
11
288.684186
21
138.865617
0
LINE
8
0
10
288.684186
20
138.865617
11
288.662000
21
136.092000
0
LINE
8
0
10
288.662000
20
136.092000
11
288.934797
21
132.531438
0
LINE
8
0
10
288.934797
20
132.531438
11
289.519125
21
128.928500
0
LINE
8
0
10
289.519125
20
128.928500
11
290.381141
21
125.326313
0
LINE
8
0
10
290.381141
20
125.326313
11
291.487000
21
121.768000
0
LINE
8
0
10
291.487000
20
121.768000
11
292.873090
21
118.138196
0
LINE
8
0
10
292.873090
20
118.138196
11
294.486781
21
114.622064
0
LINE
8
0
10
294.486781
20
114.622064
11
296.326082
21
111.237654
0
LINE
8
0
10
296.326082
20
111.237654
11
298.389000
21
108.003012
0
LINE
8
0
10
298.389000
20
108.003012
11
300.673543
21
104.936188
0
LINE
8
0
10
300.673543
20
104.936188
11
303.177719
21
102.055230
0
LINE
8
0
10
303.177719
20
102.055230
11
305.899535
21
99.378184
0
LINE
8
0
10
305.899535
20
99.378184
11
308.837000
21
96.923100
0
LINE
8
0
10
308.837000
20
96.923100
11
311.815385
21
94.812400
0
LINE
8
0
10
311.815385
20
94.812400
11
314.959578
21
92.907084
0
LINE
8
0
10
314.959578
20
92.907084
11
318.243389
21
91.196783
0
LINE
8
0
10
318.243389
20
91.196783
11
321.640625
21
89.671125
0
LINE
8
0
10
321.640625
20
89.671125
11
325.125096
21
88.319739
0
LINE
8
0
10
325.125096
20
88.319739
11
328.670609
21
87.132253
0
LINE
8
0
10
328.670609
20
87.132253
11
335.840000
21
85.207500
0
LINE
8
0
10
335.840000
20
85.207500
11
341.909250
21
83.969388
0
LINE
8
0
10
341.909250
20
83.969388
11
347.893000
21
82.934300
0
LINE
8
0
10
347.893000
20
82.934300
11
349.682375
21
82.611662
0
LINE
8
0
10
349.682375
20
82.611662
11
351.516000
21
82.145100
0
LINE
8
0
10
351.516000
20
82.145100
11
352.748875
21
81.673875
0
LINE
8
0
10
352.748875
20
81.673875
11
353.822000
21
80.973000
0
LINE
8
0
10
353.822000
20
80.973000
11
354.385000
21
80.290112
0
LINE
8
0
10
354.385000
20
80.290112
11
354.747000
21
79.466600
0
LINE
8
0
10
354.747000
20
79.466600
11
354.886875
21
78.541888
0
LINE
8
0
10
354.886875
20
78.541888
11
354.768000
21
77.600300
0
LINE
8
0
10
354.768000
20
77.600300
11
354.315766
21
76.637939
0
LINE
8
0
10
354.315766
20
76.637939
11
353.592125
21
75.758762
0
LINE
8
0
10
353.592125
20
75.758762
11
351.691000
21
74.196000
0
LINE
8
0
10
351.691000
20
74.196000
11
348.046023
21
71.838629
0
LINE
8
0
10
348.046023
20
71.838629
11
344.394812
21
69.975761
0
LINE
8
0
10
344.394812
20
69.975761
11
340.745945
21
68.549071
0
LINE
8
0
10
340.745945
20
68.549071
11
337.108000
21
67.500237
0
LINE
8
0
10
337.108000
20
67.500237
11
333.489555
21
66.770937
0
LINE
8
0
10
333.489555
20
66.770937
11
329.899188
21
66.302845
0
LINE
8
0
10
329.899188
20
66.302845
11
326.345477
21
66.037641
0
LINE
8
0
10
326.345477
20
66.037641
11
322.837000
21
65.917000
0
LINE
8
0
10
322.837000
20
65.917000
11
314.084687
21
66.029864
0
LINE
8
0
10
314.084687
20
66.029864
11
309.816953
21
66.305376
0
LINE
8
0
10
309.816953
20
66.305376
11
305.608750
21
66.730737
0
LINE
8
0
10
305.608750
20
66.730737
11
301.450516
21
67.308794
0
LINE
8
0
10
301.450516
20
67.308794
11
297.332688
21
68.042392
0
LINE
8
0
10
297.332688
20
68.042392
11
293.245703
21
68.934379
0
LINE
8
0
10
293.245703
20
68.934379
11
289.180000
21
69.987600
0
LINE
8
0
10
289.180000
20
69.987600
11
281.949125
21
72.253312
0
LINE
8
0
10
281.949125
20
72.253312
11
274.716000
21
74.916000
0
LINE
8
0
10
274.716000
20
74.916000
11
266.561250
21
78.217175
0
LINE
8
0
10
266.561250
20
78.217175
11
258.564000
21
81.586300
0
LINE
8
0
10
258.564000
20
81.586300
11
253.064734
21
83.873633
0
LINE
8
0
10
253.064734
20
83.873633
11
247.599125
21
86.004263
0
LINE
8
0
10
247.599125
20
86.004263
11
242.015953
21
87.926111
0
LINE
8
0
10
242.015953
20
87.926111
11
236.164000
21
89.587100
0
LINE
8
0
10
236.164000
20
89.587100
11
232.425928
21
90.445586
0
LINE
8
0
10
232.425928
20
90.445586
11
228.560297
21
91.173597
0
LINE
8
0
10
228.560297
20
91.173597
11
224.594236
21
91.755991
0
LINE
8
0
10
224.594236
20
91.755991
11
220.554875
21
92.177625
0
LINE
8
0
10
220.554875
20
92.177625
11
216.469342
21
92.423356
0
LINE
8
0
10
216.469342
20
92.423356
11
212.364766
21
92.478041
0
LINE
8
0
10
212.364766
20
92.478041
11
208.268275
21
92.326536
0
LINE
8
0
10
208.268275
20
92.326536
11
204.207000
21
91.953700
0
LINE
8
0
10
204.207000
20
91.953700
11
200.170037
21
91.345491
0
LINE
8
0
10
200.170037
20
91.345491
11
196.194797
21
90.524544
0
LINE
8
0
10
196.194797
20
90.524544
11
192.279627
21
89.518581
0
LINE
8
0
10
192.279627
20
89.518581
11
188.422875
21
88.355325
0
LINE
8
0
10
188.422875
20
88.355325
11
180.878016
21
85.667819
0
LINE
8
0
10
180.878016
20
85.667819
11
173.547000
21
82.683800
0
LINE
8
0
10
173.547000
20
82.683800
11
164.045031
21
78.538756
0
LINE
8
0
10
164.045031
20
78.538756
11
154.934000
21
74.382050
0
LINE
8
0
10
154.934000
20
74.382050
11
138.010000
21
66.523700
0
LINE
8
0
10
138.010000
20
66.523700
11
127.440250
21
61.876538
0
LINE
8
0
10
127.440250
20
61.876538
11
121.856406
21
59.624764
0
LINE
8
0
10
121.856406
20
59.624764
11
115.741000
21
57.332500
0
LINE
8
0
10
115.741000
20
57.332500
11
99.986400
21
51.845900
0
LINE
8
0
10
99.986400
20
51.845900
11
93.358291
21
49.523492
0
LINE
8
0
10
93.358291
20
49.523492
11
86.508350
21
47.230639
0
LINE
8
0
10
86.508350
20
47.230639
11
79.621172
21
45.203701
0
LINE
8
0
10
79.621172
20
45.203701
11
72.881350
21
43.679037
0
LINE
8
0
10
72.881350
20
43.679037
11
69.624383
21
43.178920
0
LINE
8
0
10
69.624383
20
43.178920
11
66.473478
21
42.893006
0
LINE
8
0
10
66.473478
20
42.893006
11
63.451709
21
42.850840
0
LINE
8
0
10
63.451709
20
42.850840
11
60.582150
21
43.081967
0
LINE
8
0
10
60.582150
20
43.081967
11
57.887875
21
43.615932
0
LINE
8
0
10
57.887875
20
43.615932
11
55.391959
21
44.482279
0
LINE
8
0
10
55.391959
20
44.482279
11
53.117476
21
45.710553
0
LINE
8
0
10
53.117476
20
45.710553
11
51.087500
21
47.330300
0
LINE
8
0
10
51.087500
20
47.330300
11
49.806739
21
48.736516
0
LINE
8
0
10
49.806739
20
48.736516
11
48.689337
21
50.352150
0
LINE
8
0
10
48.689337
20
50.352150
11
47.762942
21
52.173059
0
LINE
8
0
10
47.762942
20
52.173059
11
47.055200
21
54.195100
0
LINE
8
0
10
47.055200
20
54.195100
11
46.682428
21
55.860942
0
LINE
8
0
10
46.682428
20
55.860942
11
46.480300
21
57.596487
0
LINE
8
0
10
46.480300
20
57.596487
11
46.476472
21
59.357064
0
LINE
8
0
10
46.476472
20
59.357064
11
46.698600
21
61.098000
0
LINE
8
0
10
46.698600
20
61.098000
11
47.345900
21
63.287094
0
LINE
8
0
10
47.345900
20
63.287094
11
48.309175
21
65.368300
0
LINE
8
0
10
48.309175
20
65.368300
11
49.470937
21
67.343606
0
LINE
8
0
10
49.470937
20
67.343606
11
50.713700
21
69.215000
0
LINE
8
0
10
50.713700
20
69.215000
11
54.994273
21
75.186923
0
LINE
8
0
10
54.994273
20
75.186923
11
58.943337
21
80.198837
0
LINE
8
0
10
58.943337
20
80.198837
11
62.705708
21
84.621158
0
LINE
8
0
10
62.705708
20
84.621158
11
66.426200
21
88.824300
0
LINE
8
0
10
66.426200
20
88.824300
11
70.440805
21
93.386834
0
LINE
8
0
10
70.440805
20
93.386834
11
74.445312
21
98.129500
0
LINE
8
0
10
74.445312
20
98.129500
11
78.313639
21
103.061991
0
LINE
8
0
10
78.313639
20
103.061991
11
81.919700
21
108.194000
0
LINE
8
0
10
81.919700
20
108.194000
11
83.821039
21
111.247469
0
LINE
8
0
10
83.821039
20
111.247469
11
85.578538
21
114.479250
0
LINE
8
0
10
85.578538
20
114.479250
11
87.175967
21
117.998656
0
LINE
8
0
10
87.175967
20
117.998656
11
88.597100
21
121.915000
0
LINE
8
0
10
88.597100
20
121.915000
11
89.828088
21
126.320500
0
LINE
8
0
10
89.828088
20
126.320500
11
90.853275
21
131.195500
0
LINE
8
0
10
90.853275
20
131.195500
11
91.660025
21
136.501750
0
LINE
8
0
10
91.660025
20
136.501750
11
92.235700
21
142.201000
0
LINE
8
0
10
92.235700
20
142.201000
11
92.685938
21
151.664000
0
LINE
8
0
10
92.685938
20
151.664000
11
92.786000
21
162.015000
0
LINE
8
0
10
92.786000
20
162.015000
11
95.306000
21
162.019000
0
LINE
8
0
10
293.738000
20
173.178000
11
292.358625
21
173.639000
0
LINE
8
0
10
292.358625
20
173.639000
11
291.148000
21
174.295000
0
LINE
8
0
10
291.148000
20
174.295000
11
290.197125
21
175.073000
0
LINE
8
0
10
290.197125
20
175.073000
11
289.454000
21
176.052000
0
LINE
8
0
10
289.454000
20
176.052000
11
289.026500
21
177.147125
0
LINE
8
0
10
289.026500
20
177.147125
11
288.764000
21
178.348000
0
LINE
8
0
10
288.764000
20
178.348000
11
287.746375
21
185.176750
0
LINE
8
0
10
287.746375
20
185.176750
11
287.055000
21
191.974000
0
LINE
8
0
10
287.055000
20
191.974000
11
286.606875
21
198.076250
0
LINE
8
0
10
286.606875
20
198.076250
11
286.464000
21
203.916000
0
LINE
8
0
10
286.464000
20
203.916000
11
286.599109
21
208.534094
0
LINE
8
0
10
286.599109
20
208.534094
11
286.932875
21
213.385250
0
LINE
8
0
10
286.932875
20
213.385250
11
288.109000
21
223.507000
0
LINE
8
0
10
288.109000
20
223.507000
11
288.503500
21
226.044750
0
LINE
8
0
10
288.503500
20
226.044750
11
288.961000
21
228.203000
0
LINE
8
0
10
288.961000
20
228.203000
11
289.238375
21
229.038125
0
LINE
8
0
10
289.238375
20
229.038125
11
289.671000
21
229.835000
0
LINE
8
0
10
289.671000
20
229.835000
11
290.842125
21
231.175875
0
LINE
8
0
10
290.842125
20
231.175875
11
292.407000
21
232.267000
0
LINE
8
0
10
292.407000
20
232.267000
11
293.674875
21
232.651250
0
LINE
8
0
10
293.674875
20
232.651250
11
295.518000
21
232.758000
0
LINE
8
0
10
112.089000
20
101.779000
11
111.915503
21
103.118919
0
LINE
8
0
10
111.915503
20
103.118919
11
111.408640
21
104.347418
0
LINE
8
0
10
111.408640
20
104.347418
11
110.602975
21
105.404311
0
LINE
8
0
10
110.602975
20
105.404311
11
109.533074
21
106.229414
0
LINE
8
0
10
109.533074
20
106.229414
11
108.284739
21
106.746274
0
LINE
8
0
10
108.284739
20
106.746274
11
106.967000
21
106.918561
0
LINE
8
0
10
106.967000
20
106.918561
11
105.649261
21
106.746274
0
LINE
8
0
10
105.649261
20
106.746274
11
104.400926
21
106.229414
0
LINE
8
0
10
104.400926
20
106.229414
11
103.331025
21
105.404311
0
LINE
8
0
10
103.331025
20
105.404311
11
102.525360
21
104.347418
0
LINE
8
0
10
102.525360
20
104.347418
11
102.018497
21
103.118919
0
LINE
8
0
10
102.018497
20
103.118919
11
101.845000
21
101.779000
0
LINE
8
0
10
101.845000
20
101.779000
11
102.018497
21
100.439081
0
LINE
8
0
10
102.018497
20
100.439081
11
102.525360
21
99.210582
0
LINE
8
0
10
102.525360
20
99.210582
11
103.331025
21
98.153689
0
LINE
8
0
10
103.331025
20
98.153689
11
104.400926
21
97.328586
0
LINE
8
0
10
104.400926
20
97.328586
11
105.649261
21
96.811726
0
LINE
8
0
10
105.649261
20
96.811726
11
106.967000
21
96.639439
0
LINE
8
0
10
106.967000
20
96.639439
11
108.284739
21
96.811726
0
LINE
8
0
10
108.284739
20
96.811726
11
109.533074
21
97.328586
0
LINE
8
0
10
109.533074
20
97.328586
11
110.602975
21
98.153689
0
LINE
8
0
10
110.602975
20
98.153689
11
111.408640
21
99.210582
0
LINE
8
0
10
111.408640
20
99.210582
11
111.915503
21
100.439081
0
LINE
8
0
10
111.915503
20
100.439081
11
112.089000
21
101.779000
0
LINE
8
0
10
112.089000
20
101.779000
11
112.089000
21
101.779000
0
LINE
8
0
10
80.822000
20
65.701000
11
80.644687
21
67.037428
0
LINE
8
0
10
80.644687
20
67.037428
11
80.135761
21
68.262015
0
LINE
8
0
10
80.135761
20
68.262015
11
79.329695
21
69.315046
0
LINE
8
0
10
79.329695
20
69.315046
11
78.260965
21
70.136808
0
LINE
8
0
10
78.260965
20
70.136808
11
77.014934
21
70.651475
0
LINE
8
0
10
77.014934
20
70.651475
11
75.699950
21
70.823030
0
LINE
8
0
10
75.699950
20
70.823030
11
74.384966
21
70.651475
0
LINE
8
0
10
74.384966
20
70.651475
11
73.138935
21
70.136808
0
LINE
8
0
10
73.138935
20
70.136808
11
72.070205
21
69.315046
0
LINE
8
0
10
72.070205
20
69.315046
11
71.264142
21
68.262015
0
LINE
8
0
10
71.264142
20
68.262015
11
70.755221
21
67.037428
0
LINE
8
0
10
70.755221
20
67.037428
11
70.577920
21
65.701000
0
LINE
8
0
10
70.577920
20
65.701000
11
70.755227
21
64.364572
0
LINE
8
0
10
70.755227
20
64.364572
11
71.264151
21
63.139985
0
LINE
8
0
10
71.264151
20
63.139985
11
72.070215
21
62.086954
0
LINE
8
0
10
72.070215
20
62.086954
11
73.138945
21
61.265192
0
LINE
8
0
10
73.138945
20
61.265192
11
74.384976
21
60.750525
0
LINE
8
0
10
74.384976
20
60.750525
11
75.699960
21
60.578970
0
LINE
8
0
10
75.699960
20
60.578970
11
77.014944
21
60.750525
0
LINE
8
0
10
77.014944
20
60.750525
11
78.260975
21
61.265192
0
LINE
8
0
10
78.260975
20
61.265192
11
79.329705
21
62.086954
0
LINE
8
0
10
79.329705
20
62.086954
11
80.135768
21
63.139985
0
LINE
8
0
10
80.135768
20
63.139985
11
80.644689
21
64.364572
0
LINE
8
0
10
80.644689
20
64.364572
11
80.821990
21
65.701000
0
LINE
8
0
10
80.821990
20
65.701000
11
80.822000
21
65.701000
0
LINE
8
0
10
102.001000
20
156.039000
11
101.777678
21
156.898350
0
LINE
8
0
10
101.777678
20
156.898350
11
101.152692
21
157.529024
0
LINE
8
0
10
101.152692
20
157.529024
11
100.295400
21
157.760123
0
LINE
8
0
10
100.295400
20
157.760123
11
99.438108
21
157.529024
0
LINE
8
0
10
99.438108
20
157.529024
11
98.813122
21
156.898350
0
LINE
8
0
10
98.813122
20
156.898350
11
98.589800
21
156.039000
0
LINE
8
0
10
98.589800
20
156.039000
11
98.813122
21
155.179650
0
LINE
8
0
10
98.813122
20
155.179650
11
99.438108
21
154.548976
0
LINE
8
0
10
99.438108
20
154.548976
11
100.295400
21
154.317877
0
LINE
8
0
10
100.295400
20
154.317877
11
101.152692
21
154.548976
0
LINE
8
0
10
101.152692
20
154.548976
11
101.777678
21
155.179650
0
LINE
8
0
10
101.777678
20
155.179650
11
102.001000
21
156.039000
0
LINE
8
0
10
102.001000
20
156.039000
11
102.001000
21
156.039000
0
LINE
8
0
10
61.013700
20
56.162100
11
60.785157
21
57.014935
0
LINE
8
0
10
60.785157
20
57.014935
11
60.160835
21
57.639254
0
LINE
8
0
10
60.160835
20
57.639254
11
59.308000
21
57.867770
0
LINE
8
0
10
59.308000
20
57.867770
11
58.455165
21
57.639254
0
LINE
8
0
10
58.455165
20
57.639254
11
57.830846
21
57.014935
0
LINE
8
0
10
57.830846
20
57.014935
11
57.602330
21
56.162100
0
LINE
8
0
10
57.602330
20
56.162100
11
57.830860
21
55.309265
0
LINE
8
0
10
57.830860
20
55.309265
11
58.455180
21
54.684946
0
LINE
8
0
10
58.455180
20
54.684946
11
59.308015
21
54.456430
0
LINE
8
0
10
59.308015
20
54.456430
11
60.160850
21
54.684946
0
LINE
8
0
10
60.160850
20
54.684946
11
60.785169
21
55.309265
0
LINE
8
0
10
60.785169
20
55.309265
11
61.013685
21
56.162100
0
LINE
8
0
10
61.013685
20
56.162100
11
61.013700
21
56.162100
0
LINE
8
0
10
121.365000
20
67.326200
11
121.144615
21
68.189175
0
LINE
8
0
10
121.144615
20
68.189175
11
120.519277
21
68.823405
0
LINE
8
0
10
120.519277
20
68.823405
11
119.659500
21
69.055951
0
LINE
8
0
10
119.659500
20
69.055951
11
118.799723
21
68.823405
0
LINE
8
0
10
118.799723
20
68.823405
11
118.174385
21
68.189175
0
LINE
8
0
10
118.174385
20
68.189175
11
117.954000
21
67.326200
0
LINE
8
0
10
117.954000
20
67.326200
11
118.174385
21
66.463225
0
LINE
8
0
10
118.174385
20
66.463225
11
118.799723
21
65.828995
0
LINE
8
0
10
118.799723
20
65.828995
11
119.659500
21
65.596449
0
LINE
8
0
10
119.659500
20
65.596449
11
120.519277
21
65.828995
0
LINE
8
0
10
120.519277
20
65.828995
11
121.144615
21
66.463225
0
LINE
8
0
10
121.144615
20
66.463225
11
121.365000
21
67.326200
0
LINE
8
0
10
121.365000
20
67.326200
11
121.365000
21
67.326200
0
LINE
8
0
10
175.123000
20
91.560400
11
174.902615
21
92.423375
0
LINE
8
0
10
174.902615
20
92.423375
11
174.277277
21
93.057605
0
LINE
8
0
10
174.277277
20
93.057605
11
173.417500
21
93.290151
0
LINE
8
0
10
173.417500
20
93.290151
11
172.557723
21
93.057605
0
LINE
8
0
10
172.557723
20
93.057605
11
171.932385
21
92.423375
0
LINE
8
0
10
171.932385
20
92.423375
11
171.712000
21
91.560400
0
LINE
8
0
10
171.712000
20
91.560400
11
171.932385
21
90.697425
0
LINE
8
0
10
171.932385
20
90.697425
11
172.557723
21
90.063195
0
LINE
8
0
10
172.557723
20
90.063195
11
173.417500
21
89.830649
0
LINE
8
0
10
173.417500
20
89.830649
11
174.277277
21
90.063195
0
LINE
8
0
10
174.277277
20
90.063195
11
174.902615
21
90.697425
0
LINE
8
0
10
174.902615
20
90.697425
11
175.123000
21
91.560400
0
LINE
8
0
10
175.123000
20
91.560400
11
175.123000
21
91.560400
0
LINE
8
0
10
341.067000
20
76.704700
11
340.838195
21
77.557535
0
LINE
8
0
10
340.838195
20
77.557535
11
340.213835
21
78.181854
0
LINE
8
0
10
340.213835
20
78.181854
11
339.361000
21
78.410370
0
LINE
8
0
10
339.361000
20
78.410370
11
338.508165
21
78.181854
0
LINE
8
0
10
338.508165
20
78.181854
11
337.883846
21
77.557535
0
LINE
8
0
10
337.883846
20
77.557535
11
337.655330
21
76.704700
0
LINE
8
0
10
337.655330
20
76.704700
11
337.883991
21
75.851865
0
LINE
8
0
10
337.883991
20
75.851865
11
338.508330
21
75.227546
0
LINE
8
0
10
338.508330
20
75.227546
11
339.361165
21
74.999030
0
LINE
8
0
10
339.361165
20
74.999030
11
340.214000
21
75.227546
0
LINE
8
0
10
340.214000
20
75.227546
11
340.838319
21
75.851865
0
LINE
8
0
10
340.838319
20
75.851865
11
341.066835
21
76.704700
0
LINE
8
0
10
341.066835
20
76.704700
11
341.067000
21
76.704700
0
LINE
8
0
10
288.783000
20
165.261000
11
288.554195
21
166.113835
0
LINE
8
0
10
288.554195
20
166.113835
11
287.929835
21
166.738154
0
LINE
8
0
10
287.929835
20
166.738154
11
287.077000
21
166.966670
0
LINE
8
0
10
287.077000
20
166.966670
11
286.224165
21
166.738154
0
LINE
8
0
10
286.224165
20
166.738154
11
285.599846
21
166.113835
0
LINE
8
0
10
285.599846
20
166.113835
11
285.371330
21
165.261000
0
LINE
8
0
10
285.371330
20
165.261000
11
285.599991
21
164.408165
0
LINE
8
0
10
285.599991
20
164.408165
11
286.224330
21
163.783846
0
LINE
8
0
10
286.224330
20
163.783846
11
287.077165
21
163.555330
0
LINE
8
0
10
287.077165
20
163.555330
11
287.930000
21
163.783846
0
LINE
8
0
10
287.930000
20
163.783846
11
288.554319
21
164.408165
0
LINE
8
0
10
288.554319
20
164.408165
11
288.782835
21
165.261000
0
LINE
8
0
10
288.782835
20
165.261000
11
288.783000
21
165.261000
0
LINE
8
0
10
158.855000
20
274.851000
11
158.634615
21
275.713975
0
LINE
8
0
10
158.634615
20
275.713975
11
158.009277
21
276.348205
0
LINE
8
0
10
158.009277
20
276.348205
11
157.149500
21
276.580751
0
LINE
8
0
10
157.149500
20
276.580751
11
156.289723
21
276.348205
0
LINE
8
0
10
156.289723
20
276.348205
11
155.664385
21
275.713975
0
LINE
8
0
10
155.664385
20
275.713975
11
155.444000
21
274.851000
0
LINE
8
0
10
155.444000
20
274.851000
11
155.664385
21
273.988025
0
LINE
8
0
10
155.664385
20
273.988025
11
156.289723
21
273.353795
0
LINE
8
0
10
156.289723
20
273.353795
11
157.149500
21
273.121249
0
LINE
8
0
10
157.149500
20
273.121249
11
158.009277
21
273.353795
0
LINE
8
0
10
158.009277
20
273.353795
11
158.634615
21
273.988025
0
LINE
8
0
10
158.634615
20
273.988025
11
158.855000
21
274.851000
0
LINE
8
0
10
158.855000
20
274.851000
11
158.855000
21
274.851000
0
LINE
8
0
10
213.846000
20
256.910000
11
213.617195
21
257.762835
0
LINE
8
0
10
213.617195
20
257.762835
11
212.992835
21
258.387154
0
LINE
8
0
10
212.992835
20
258.387154
11
212.140000
21
258.615670
0
LINE
8
0
10
212.140000
20
258.615670
11
211.287165
21
258.387154
0
LINE
8
0
10
211.287165
20
258.387154
11
210.662846
21
257.762835
0
LINE
8
0
10
210.662846
20
257.762835
11
210.434330
21
256.910000
0
LINE
8
0
10
210.434330
20
256.910000
11
210.662991
21
256.057165
0
LINE
8
0
10
210.662991
20
256.057165
11
211.287330
21
255.432846
0
LINE
8
0
10
211.287330
20
255.432846
11
212.140165
21
255.204330
0
LINE
8
0
10
212.140165
20
255.204330
11
212.993000
21
255.432846
0
LINE
8
0
10
212.993000
20
255.432846
11
213.617319
21
256.057165
0
LINE
8
0
10
213.617319
20
256.057165
11
213.845835
21
256.910000
0
LINE
8
0
10
213.845835
20
256.910000
11
213.846000
21
256.910000
0
LINE
8
0
10
103.539000
20
256.592000
11
103.318615
21
257.454975
0
LINE
8
0
10
103.318615
20
257.454975
11
102.693277
21
258.089205
0
LINE
8
0
10
102.693277
20
258.089205
11
101.833500
21
258.321751
0
LINE
8
0
10
101.833500
20
258.321751
11
100.973723
21
258.089205
0
LINE
8
0
10
100.973723
20
258.089205
11
100.348385
21
257.454975
0
LINE
8
0
10
100.348385
20
257.454975
11
100.128000
21
256.592000
0
LINE
8
0
10
100.128000
20
256.592000
11
100.348385
21
255.729025
0
LINE
8
0
10
100.348385
20
255.729025
11
100.973723
21
255.094795
0
LINE
8
0
10
100.973723
20
255.094795
11
101.833500
21
254.862249
0
LINE
8
0
10
101.833500
20
254.862249
11
102.693277
21
255.094795
0
LINE
8
0
10
102.693277
20
255.094795
11
103.318615
21
255.729025
0
LINE
8
0
10
103.318615
20
255.729025
11
103.539000
21
256.592000
0
LINE
8
0
10
103.539000
20
256.592000
11
103.539000
21
256.592000
0
LINE
8
0
10
322.705000
20
252.191000
11
322.484615
21
253.053975
0
LINE
8
0
10
322.484615
20
253.053975
11
321.859277
21
253.688205
0
LINE
8
0
10
321.859277
20
253.688205
11
320.999500
21
253.920751
0
LINE
8
0
10
320.999500
20
253.920751
11
320.139723
21
253.688205
0
LINE
8
0
10
320.139723
20
253.688205
11
319.514385
21
253.053975
0
LINE
8
0
10
319.514385
20
253.053975
11
319.294000
21
252.191000
0
LINE
8
0
10
319.294000
20
252.191000
11
319.514385
21
251.328025
0
LINE
8
0
10
319.514385
20
251.328025
11
320.139723
21
250.693795
0
LINE
8
0
10
320.139723
20
250.693795
11
320.999500
21
250.461249
0
LINE
8
0
10
320.999500
20
250.461249
11
321.859277
21
250.693795
0
LINE
8
0
10
321.859277
20
250.693795
11
322.484615
21
251.328025
0
LINE
8
0
10
322.484615
20
251.328025
11
322.705000
21
252.191000
0
LINE
8
0
10
322.705000
20
252.191000
11
322.705000
21
252.191000
0
LINE
8
0
10
276.733000
20
83.914600
11
276.512615
21
84.777575
0
LINE
8
0
10
276.512615
20
84.777575
11
275.887277
21
85.411805
0
LINE
8
0
10
275.887277
20
85.411805
11
275.027500
21
85.644351
0
LINE
8
0
10
275.027500
20
85.644351
11
274.167723
21
85.411805
0
LINE
8
0
10
274.167723
20
85.411805
11
273.542385
21
84.777575
0
LINE
8
0
10
273.542385
20
84.777575
11
273.322000
21
83.914600
0
LINE
8
0
10
273.322000
20
83.914600
11
273.542385
21
83.051625
0
LINE
8
0
10
273.542385
20
83.051625
11
274.167723
21
82.417395
0
LINE
8
0
10
274.167723
20
82.417395
11
275.027500
21
82.184849
0
LINE
8
0
10
275.027500
20
82.184849
11
275.887277
21
82.417395
0
LINE
8
0
10
275.887277
20
82.417395
11
276.512615
21
83.051625
0
LINE
8
0
10
276.512615
20
83.051625
11
276.733000
21
83.914600
0
LINE
8
0
10
276.733000
20
83.914600
11
276.733000
21
83.914600
0
LINE
8
0
10
352.910000
20
81.593600
11
352.835000
21
81.632300
0
LINE
8
0
10
108.233000
20
240.000000
11
108.233000
21
165.433000
0
LINE
8
0
10
104.818000
20
162.019000
11
95.306000
21
162.019000
0
LINE
8
0
10
92.499500
20
243.211000
11
105.053000
21
243.211000
0
LINE
8
0
10
92.499500
20
243.211000
11
92.446500
21
243.252000
0
LINE
8
0
10
104.818000
20
162.019000
11
106.147084
21
162.287184
0
LINE
8
0
10
106.147084
20
162.287184
11
107.232507
21
163.018786
0
LINE
8
0
10
107.232507
20
163.018786
11
107.964427
21
164.103995
0
LINE
8
0
10
107.964427
20
164.103995
11
108.233000
21
165.433000
0
LINE
8
0
10
298.718000
20
232.758000
11
324.438000
21
232.758000
0
LINE
8
0
10
164.862000
20
237.463000
11
164.258808
21
238.416926
0
LINE
8
0
10
164.258808
20
238.416926
11
163.417621
21
239.132811
0
LINE
8
0
10
163.417621
20
239.132811
11
162.403374
21
239.570290
0
LINE
8
0
10
162.403374
20
239.570290
11
161.281000
21
239.689000
0
LINE
8
0
10
124.331000
20
167.335000
11
125.235392
21
166.416108
0
LINE
8
0
10
125.235392
20
166.416108
11
126.318402
21
165.750586
0
LINE
8
0
10
126.318402
20
165.750586
11
127.528711
21
165.362020
0
LINE
8
0
10
127.528711
20
165.362020
11
128.815000
21
165.274000
0
LINE
8
0
10
128.815000
20
165.274000
11
161.340000
21
165.274000
0
LINE
8
0
10
161.340000
20
165.274000
11
162.393781
21
165.417414
0
LINE
8
0
10
162.393781
20
165.417414
11
163.354962
21
165.828212
0
LINE
8
0
10
163.354962
20
165.828212
11
164.174412
21
166.477154
0
LINE
8
0
10
164.174412
20
166.477154
11
164.803000
21
167.335000
0
LINE
8
0
10
128.972000
20
239.689000
11
161.281000
21
239.689000
0
LINE
8
0
10
128.972000
20
239.689000
11
127.644406
21
239.539113
0
LINE
8
0
10
127.644406
20
239.539113
11
126.398367
21
239.103758
0
LINE
8
0
10
126.398367
20
239.103758
11
125.278895
21
238.404524
0
LINE
8
0
10
125.278895
20
238.404524
11
124.331000
21
237.463000
0
LINE
8
0
10
124.331000
20
237.463000
11
124.331000
21
167.335000
0
LINE
8
0
10
164.803000
20
167.335000
11
164.803000
21
237.592000
0
LINE
8
0
10
92.446500
20
243.252000
11
92.319200
21
250.144000
0
LINE
8
0
10
92.319200
20
250.144000
11
92.435807
21
252.170773
0
LINE
8
0
10
92.435807
20
252.170773
11
92.700784
21
254.175148
0
LINE
8
0
10
92.700784
20
254.175148
11
93.665609
21
258.085346
0
LINE
8
0
10
93.665609
20
258.085346
11
95.193205
21
261.811871
0
LINE
8
0
10
95.193205
20
261.811871
11
96.161644
21
263.586655
0
LINE
8
0
10
96.161644
20
263.586655
11
97.263100
21
265.292000
0
LINE
8
0
10
97.263100
20
265.292000
11
99.020385
21
267.628690
0
LINE
8
0
10
99.020385
20
267.628690
11
100.973305
21
269.796891
0
LINE
8
0
10
100.973305
20
269.796891
11
103.109847
21
271.784396
0
LINE
8
0
10
103.109847
20
271.784396
11
105.418000
21
273.579000
0
LINE
8
0
10
105.418000
20
273.579000
11
108.002509
21
275.288492
0
LINE
8
0
10
108.002509
20
275.288492
11
110.672750
21
276.846165
0
LINE
8
0
10
110.672750
20
276.846165
11
113.421945
21
278.249252
0
LINE
8
0
10
113.421945
20
278.249252
11
116.243315
21
279.494984
0
LINE
8
0
10
116.243315
20
279.494984
11
119.130084
21
280.580593
0
LINE
8
0
10
119.130084
20
280.580593
11
122.075473
21
281.503311
0
LINE
8
0
10
122.075473
20
281.503311
11
125.072704
21
282.260369
0
LINE
8
0
10
125.072704
20
282.260369
11
128.115000
21
282.849000
0
LINE
8
0
10
128.115000
20
282.849000
11
132.881054
21
283.547798
0
LINE
8
0
10
132.881054
20
283.547798
11
137.678000
21
283.987000
0
LINE
8
0
10
137.678000
20
283.987000
11
144.584641
21
284.268150
0
LINE
8
0
10
144.584641
20
284.268150
11
151.480194
21
283.991050
0
LINE
8
0
10
151.480194
20
283.991050
11
158.330900
21
283.158425
0
LINE
8
0
10
158.330900
20
283.158425
11
165.103000
21
281.773000
0
LINE
8
0
10
165.103000
20
281.773000
11
171.877664
21
279.995878
0
LINE
8
0
10
171.877664
20
279.995878
11
178.569000
21
277.927000
0
LINE
8
0
10
178.569000
20
277.927000
11
188.154199
21
274.052134
0
LINE
8
0
10
188.154199
20
274.052134
11
197.795678
21
270.321104
0
LINE
8
0
10
197.795678
20
270.321104
11
207.491818
21
266.734522
0
LINE
8
0
10
207.491818
20
266.734522
11
217.241000
21
263.293000
0
LINE
8
0
10
217.241000
20
263.293000
11
226.160599
21
260.462177
0
LINE
8
0
10
226.160599
20
260.462177
11
235.204000
21
258.056000
0
LINE
8
0
10
235.204000
20
258.056000
11
241.895992
21
256.649676
0
LINE
8
0
10
241.895992
20
256.649676
11
248.650691
21
255.619093
0
LINE
8
0
10
248.650691
20
255.619093
11
255.452295
21
254.966214
0
LINE
8
0
10
255.452295
20
254.966214
11
262.285000
21
254.693000
0
LINE
8
0
10
262.285000
20
254.693000
11
268.054518
21
254.719361
0
LINE
8
0
10
268.054518
20
254.719361
11
273.818376
21
254.937488
0
LINE
8
0
10
273.818376
20
254.937488
11
279.571797
21
255.347121
0
LINE
8
0
10
279.571797
20
255.347121
11
285.310000
21
255.948000
0
LINE
8
0
10
285.310000
20
255.948000
11
294.413385
21
257.187723
0
LINE
8
0
10
294.413385
20
257.187723
11
303.460000
21
258.790000
0
LINE
8
0
10
303.460000
20
258.790000
11
312.202000
21
260.843000
0
LINE
8
0
10
312.202000
20
260.843000
11
316.108146
21
261.752798
0
LINE
8
0
10
316.108146
20
261.752798
11
320.072000
21
262.364000
0
LINE
8
0
10
320.072000
20
262.364000
11
322.092303
21
262.404914
0
LINE
8
0
10
322.092303
20
262.404914
11
324.060654
21
262.045419
0
LINE
8
0
10
324.060654
20
262.045419
11
325.918490
21
261.302392
0
LINE
8
0
10
325.918490
20
261.302392
11
327.607247
21
260.192707
0
LINE
8
0
10
327.607247
20
260.192707
11
329.039322
21
258.767064
0
LINE
8
0
10
329.039322
20
258.767064
11
330.147149
21
257.100822
0
LINE
8
0
10
330.147149
20
257.100822
11
330.902212
21
255.247845
0
LINE
8
0
10
330.902212
20
255.247845
11
331.276000
21
253.262000
0
LINE
8
0
10
331.276000
20
253.262000
11
331.291903
21
250.962401
0
LINE
8
0
10
331.291903
20
250.962401
11
330.833000
21
248.709000
0
LINE
8
0
10
330.833000
20
248.709000
11
329.629000
21
245.400000
0
LINE
8
0
10
329.629000
20
245.400000
11
326.031000
21
236.920000
0
LINE
8
0
10
324.438000
20
232.758000
11
324.488000
21
232.758000
0
LINE
8
0
10
326.031000
20
236.920000
11
324.488000
21
232.758000
0
LINE
8
0
10
298.718000
20
232.758000
11
295.518000
21
232.758000
0
LINE
8
0
10
293.738000
20
173.178000
11
296.569431
21
172.631801
0
LINE
8
0
10
296.569431
20
172.631801
11
299.453000
21
172.651000
0
LINE
8
0
10
145.900000
20
161.090000
11
145.721368
21
161.756665
0
LINE
8
0
10
145.721368
20
161.756665
11
145.233335
21
162.244698
0
LINE
8
0
10
145.233335
20
162.244698
11
144.566670
21
162.423330
0
LINE
8
0
10
144.566670
20
162.423330
11
143.900005
21
162.244698
0
LINE
8
0
10
143.900005
20
162.244698
11
143.411972
21
161.756665
0
LINE
8
0
10
143.411972
20
161.756665
11
143.233340
21
161.090000
0
LINE
8
0
10
143.233340
20
161.090000
11
143.411972
21
160.423335
0
LINE
8
0
10
143.411972
20
160.423335
11
143.900005
21
159.935302
0
LINE
8
0
10
143.900005
20
159.935302
11
144.566670
21
159.756670
0
LINE
8
0
10
144.566670
20
159.756670
11
145.233335
21
159.935302
0
LINE
8
0
10
145.233335
20
159.935302
11
145.721368
21
160.423335
0
LINE
8
0
10
145.721368
20
160.423335
11
145.900000
21
161.090000
0
LINE
8
0
10
145.900000
20
161.090000
11
145.900000
21
161.090000
0
LINE
8
0
10
145.900000
20
244.024000
11
145.721368
21
244.690665
0
LINE
8
0
10
145.721368
20
244.690665
11
145.233335
21
245.178698
0
LINE
8
0
10
145.233335
20
245.178698
11
144.566670
21
245.357330
0
LINE
8
0
10
144.566670
20
245.357330
11
143.900005
21
245.178698
0
LINE
8
0
10
143.900005
20
245.178698
11
143.411972
21
244.690665
0
LINE
8
0
10
143.411972
20
244.690665
11
143.233340
21
244.024000
0
LINE
8
0
10
143.233340
20
244.024000
11
143.411972
21
243.357335
0
LINE
8
0
10
143.411972
20
243.357335
11
143.900005
21
242.869302
0
LINE
8
0
10
143.900005
20
242.869302
11
144.566670
21
242.690670
0
LINE
8
0
10
144.566670
20
242.690670
11
145.233335
21
242.869302
0
LINE
8
0
10
145.233335
20
242.869302
11
145.721368
21
243.357335
0
LINE
8
0
10
145.721368
20
243.357335
11
145.900000
21
244.024000
0
LINE
8
0
10
145.900000
20
244.024000
11
145.900000
21
244.024000
0
LINE
8
0
10
211.761000
20
73.588300
11
210.538594
21
73.832811
0
LINE
8
0
10
210.538594
20
73.832811
11
209.502289
21
74.529120
0
LINE
8
0
10
209.502289
20
74.529120
11
208.809852
21
75.571220
0
LINE
8
0
10
208.809852
20
75.571220
11
208.566700
21
76.800460
0
LINE
8
0
10
208.244000
20
141.898000
11
208.244000
21
148.953000
0
LINE
8
0
10
208.244000
20
148.953000
11
208.244000
21
156.009000
0
LINE
8
0
10
208.244000
20
156.009000
11
208.244000
21
163.065000
0
LINE
8
0
10
208.244000
20
163.065000
11
208.244000
21
170.120000
0
LINE
8
0
10
208.244000
20
170.120000
11
203.255000
21
175.109000
0
LINE
8
0
10
203.255000
20
175.109000
11
196.199000
21
175.109000
0
LINE
8
0
10
196.199000
20
175.109000
11
191.210000
21
180.098000
0
LINE
8
0
10
208.244000
20
170.120000
11
208.244000
21
177.176000
0
LINE
8
0
10
208.244000
20
177.176000
11
213.233000
21
182.165000
0
LINE
8
0
10
213.233000
20
182.165000
11
213.233000
21
189.220000
0
LINE
8
0
10
208.244000
20
170.120000
11
208.244000
21
177.176000
0
LINE
8
0
10
208.244000
20
177.176000
11
208.244000
21
184.231000
0
LINE
8
0
10
208.244000
20
184.231000
11
208.244000
21
191.287000
0
LINE
8
0
10
208.244000
20
191.287000
11
203.255000
21
196.276000
0
LINE
8
0
10
203.255000
20
196.276000
11
196.199000
21
196.276000
0
LINE
8
0
10
196.199000
20
196.276000
11
191.210000
21
201.265000
0
LINE
8
0
10
208.244000
20
191.287000
11
208.244000
21
198.342000
0
LINE
8
0
10
208.244000
20
198.342000
11
213.233000
21
203.331000
0
LINE
8
0
10
213.233000
20
203.331000
11
213.233000
21
210.387000
0
LINE
8
0
10
208.244000
20
191.287000
11
203.255000
21
196.276000
0
LINE
8
0
10
203.255000
20
196.276000
11
196.199000
21
196.276000
0
LINE
8
0
10
196.199000
20
196.276000
11
189.144000
21
196.276000
0
LINE
8
0
10
189.144000
20
196.276000
11
182.088000
21
196.276000
0
LINE
8
0
10
182.088000
20
196.276000
11
177.099000
21
191.287000
0
LINE
8
0
10
177.099000
20
191.287000
11
177.099000
21
184.231000
0
LINE
8
0
10
177.099000
20
184.231000
11
172.110000
21
179.242000
0
LINE
8
0
10
182.088000
20
196.276000
11
175.033000
21
196.276000
0
LINE
8
0
10
175.033000
20
196.276000
11
170.044000
21
201.265000
0
LINE
8
0
10
170.044000
20
201.265000
11
162.988000
21
201.265000
0
LINE
8
0
10
182.088000
20
196.276000
11
177.099000
21
201.265000
0
LINE
8
0
10
177.099000
20
201.265000
11
172.110000
21
206.254000
0
LINE
8
0
10
172.110000
20
206.254000
11
167.121000
21
211.243000
0
LINE
8
0
10
167.121000
20
211.243000
11
160.065000
21
211.243000
0
LINE
8
0
10
160.065000
20
211.243000
11
155.076000
21
206.254000
0
LINE
8
0
10
155.076000
20
206.254000
11
148.021000
21
206.254000
0
LINE
8
0
10
167.121000
20
211.243000
11
162.132000
21
216.232000
0
LINE
8
0
10
162.132000
20
216.232000
11
162.132000
21
223.287000
0
LINE
8
0
10
162.132000
20
223.287000
11
157.143000
21
228.277000
0
LINE
8
0
10
208.244000
20
191.287000
11
208.244000
21
198.342000
0
LINE
8
0
10
208.244000
20
198.342000
11
213.233000
21
203.331000
0
LINE
8
0
10
213.233000
20
203.331000
11
218.222000
21
208.320000
0
LINE
8
0
10
218.222000
20
208.320000
11
223.211000
21
213.309000
0
LINE
8
0
10
223.211000
20
213.309000
11
223.211000
21
220.365000
0
LINE
8
0
10
223.211000
20
220.365000
11
218.222000
21
225.354000
0
LINE
8
0
10
218.222000
20
225.354000
11
218.222000
21
232.410000
0
LINE
8
0
10
223.211000
20
213.309000
11
228.200000
21
218.298000
0
LINE
8
0
10
228.200000
20
218.298000
11
235.255000
21
218.298000
0
LINE
8
0
10
235.255000
20
218.298000
11
240.244000
21
223.287000
0
LINE
8
0
10
223.211000
20
213.309000
11
223.211000
21
220.365000
0
LINE
8
0
10
223.211000
20
220.365000
11
223.211000
21
227.421000
0
LINE
8
0
10
223.211000
20
227.421000
11
223.211000
21
234.476000
0
LINE
8
0
10
223.211000
20
234.476000
11
218.222000
21
239.465000
0
LINE
8
0
10
218.222000
20
239.465000
11
211.166000
21
239.465000
0
LINE
8
0
10
211.166000
20
239.465000
11
206.177000
21
244.454000
0
LINE
8
0
10
223.211000
20
234.476000
11
223.211000
21
241.532000
0
LINE
8
0
10
223.211000
20
241.532000
11
228.200000
21
246.521000
0
LINE
8
0
10
228.200000
20
246.521000
11
228.200000
21
253.576000
0
LINE
8
0
10
208.244000
20
191.287000
11
208.244000
21
198.342000
0
LINE
8
0
10
208.244000
20
198.342000
11
208.244000
21
205.398000
0
LINE
8
0
10
208.244000
20
205.398000
11
208.244000
21
212.453000
0
LINE
8
0
10
440.549000
20
225.364000
11
440.549000
21
232.419000
0
LINE
8
0
10
440.549000
20
232.419000
11
440.549000
21
239.475000
0
LINE
8
0
10
440.549000
20
239.475000
11
440.549000
21
246.531000
0
LINE
8
0
10
440.549000
20
246.531000
11
440.549000
21
253.586000
0
LINE
8
0
10
440.549000
20
253.586000
11
435.560000
21
258.575000
0
LINE
8
0
10
435.560000
20
258.575000
11
428.505000
21
258.575000
0
LINE
8
0
10
428.505000
20
258.575000
11
423.516000
21
263.564000
0
LINE
8
0
10
428.505000
20
258.575000
11
423.516000
21
263.564000
0
LINE
8
0
10
423.516000
20
263.564000
11
423.516000
21
270.620000
0
LINE
8
0
10
423.516000
20
270.620000
11
418.526000
21
275.609000
0
LINE
8
0
10
428.505000
20
258.575000
11
423.516000
21
263.564000
0
LINE
8
0
10
423.516000
20
263.564000
11
418.526000
21
268.553000
0
LINE
8
0
10
418.526000
20
268.553000
11
413.537000
21
273.542000
0
LINE
8
0
10
413.537000
20
273.542000
11
406.482000
21
273.542000
0
LINE
8
0
10
406.482000
20
273.542000
11
401.493000
21
268.553000
0
LINE
8
0
10
401.493000
20
268.553000
11
394.437000
21
268.553000
0
LINE
8
0
10
401.493000
20
268.553000
11
394.437000
21
268.553000
0
LINE
8
0
10
394.437000
20
268.553000
11
389.448000
21
273.542000
0
LINE
8
0
10
389.448000
20
273.542000
11
382.393000
21
273.542000
0
LINE
8
0
10
401.493000
20
268.553000
11
396.504000
21
263.564000
0
LINE
8
0
10
396.504000
20
263.564000
11
396.504000
21
256.509000
0
LINE
8
0
10
396.504000
20
256.509000
11
396.504000
21
249.453000
0
LINE
8
0
10
396.504000
20
249.453000
11
396.504000
21
242.397000
0
LINE
8
0
10
396.504000
20
242.397000
11
401.493000
21
237.408000
0
LINE
8
0
10
401.493000
20
237.408000
11
408.548000
21
237.408000
0
LINE
8
0
10
408.548000
20
237.408000
11
413.537000
21
232.419000
0
LINE
8
0
10
408.548000
20
237.408000
11
413.537000
21
232.419000
0
LINE
8
0
10
413.537000
20
232.419000
11
413.537000
21
225.364000
0
LINE
8
0
10
413.537000
20
225.364000
11
418.526000
21
220.375000
0
LINE
8
0
10
408.548000
20
237.408000
11
408.548000
21
230.353000
0
LINE
8
0
10
408.548000
20
230.353000
11
408.548000
21
223.297000
0
LINE
8
0
10
408.548000
20
223.297000
11
408.548000
21
216.242000
0
LINE
8
0
10
408.548000
20
216.242000
11
413.537000
21
211.253000
0
LINE
8
0
10
413.537000
20
211.253000
11
420.593000
21
211.253000
0
LINE
8
0
10
420.593000
20
211.253000
11
425.582000
21
206.264000
0
LINE
8
0
10
420.593000
20
211.253000
11
425.582000
21
206.264000
0
LINE
8
0
10
425.582000
20
206.264000
11
425.582000
21
199.208000
0
LINE
8
0
10
425.582000
20
199.208000
11
430.571000
21
194.219000
0
LINE
8
0
10
413.537000
20
211.253000
11
418.526000
21
206.264000
0
LINE
8
0
10
418.526000
20
206.264000
11
418.526000
21
199.208000
0
LINE
8
0
10
418.526000
20
199.208000
11
418.526000
21
192.153000
0
LINE
8
0
10
418.526000
20
192.153000
11
418.526000
21
185.097000
0
LINE
8
0
10
418.526000
20
185.097000
11
423.516000
21
180.108000
0
LINE
8
0
10
423.516000
20
180.108000
11
430.571000
21
180.108000
0
LINE
8
0
10
430.571000
20
180.108000
11
435.560000
21
175.119000
0
LINE
8
0
10
430.571000
20
180.108000
11
435.560000
21
175.119000
0
LINE
8
0
10
435.560000
20
175.119000
11
435.560000
21
168.063000
0
LINE
8
0
10
435.560000
20
168.063000
11
440.549000
21
163.074000
0
LINE
8
0
10
430.571000
20
180.108000
11
437.627000
21
180.108000
0
LINE
8
0
10
437.627000
20
180.108000
11
444.682000
21
180.108000
0
LINE
8
0
10
444.682000
20
180.108000
11
451.738000
21
180.108000
0
LINE
8
0
10
451.738000
20
180.108000
11
456.727000
21
185.097000
0
LINE
8
0
10
456.727000
20
185.097000
11
456.727000
21
192.153000
0
LINE
8
0
10
456.727000
20
192.153000
11
461.716000
21
197.142000
0
LINE
8
0
10
456.727000
20
192.153000
11
461.716000
21
197.142000
0
LINE
8
0
10
461.716000
20
197.142000
11
468.771000
21
197.142000
0
LINE
8
0
10
468.771000
20
197.142000
11
473.760000
21
202.131000
0
LINE
8
0
10
380.718000
20
-21.862600
11
380.718000
21
-13.395900
0
LINE
8
0
10
380.718000
20
-13.395900
11
380.718000
21
-4.929270
0
LINE
8
0
10
380.718000
20
-4.929270
11
380.718000
21
3.537390
0
LINE
8
0
10
380.718000
20
3.537390
11
380.718000
21
12.004000
0
LINE
8
0
10
380.718000
20
12.004000
11
380.718000
21
20.470700
0
LINE
8
0
10
380.718000
20
20.470700
11
374.731000
21
26.457500
0
LINE
8
0
10
374.731000
20
26.457500
11
366.265000
21
26.457500
0
LINE
8
0
10
366.265000
20
26.457500
11
360.278000
21
32.444400
0
LINE
8
0
10
380.718000
20
20.470700
11
380.718000
21
28.937400
0
LINE
8
0
10
380.718000
20
28.937400
11
386.705000
21
34.924200
0
LINE
8
0
10
386.705000
20
34.924200
11
386.705000
21
43.390900
0
LINE
8
0
10
380.718000
20
20.470700
11
380.718000
21
28.937400
0
LINE
8
0
10
380.718000
20
28.937400
11
380.718000
21
37.404000
0
LINE
8
0
10
380.718000
20
37.404000
11
380.718000
21
45.870700
0
LINE
8
0
10
380.718000
20
45.870700
11
374.731000
21
51.857500
0
LINE
8
0
10
374.731000
20
51.857500
11
366.265000
21
51.857500
0
LINE
8
0
10
366.265000
20
51.857500
11
360.278000
21
57.844400
0
LINE
8
0
10
380.718000
20
45.870700
11
380.718000
21
54.337300
0
LINE
8
0
10
380.718000
20
54.337300
11
386.705000
21
60.324200
0
LINE
8
0
10
386.705000
20
60.324200
11
386.705000
21
68.790800
0
LINE
8
0
10
380.718000
20
45.870700
11
374.731000
21
51.857500
0
LINE
8
0
10
374.731000
20
51.857500
11
366.265000
21
51.857500
0
LINE
8
0
10
366.265000
20
51.857500
11
357.798000
21
51.857500
0
LINE
8
0
10
357.798000
20
51.857500
11
349.331000
21
51.857500
0
LINE
8
0
10
349.331000
20
51.857500
11
343.344000
21
45.870700
0
LINE
8
0
10
343.344000
20
45.870700
11
343.344000
21
37.404000
0
LINE
8
0
10
343.344000
20
37.404000
11
337.358000
21
31.417200
0
LINE
8
0
10
349.331000
20
51.857500
11
340.865000
21
51.857500
0
LINE
8
0
10
340.865000
20
51.857500
11
334.878000
21
57.844400
0
LINE
8
0
10
334.878000
20
57.844400
11
326.411000
21
57.844400
0
LINE
8
0
10
349.331000
20
51.857500
11
343.344000
21
57.844400
0
LINE
8
0
10
343.344000
20
57.844400
11
337.358000
21
63.831200
0
LINE
8
0
10
337.358000
20
63.831200
11
331.371000
21
69.818000
0
LINE
8
0
10
331.371000
20
69.818000
11
322.904000
21
69.818000
0
LINE
8
0
10
322.904000
20
69.818000
11
316.917000
21
63.831200
0
LINE
8
0
10
316.917000
20
63.831200
11
308.451000
21
63.831200
0
LINE
8
0
10
331.371000
20
69.818000
11
325.384000
21
75.804900
0
LINE
8
0
10
325.384000
20
75.804900
11
325.384000
21
84.271500
0
LINE
8
0
10
325.384000
20
84.271500
11
319.397000
21
90.258300
0
LINE
8
0
10
380.718000
20
45.870700
11
380.718000
21
54.337300
0
LINE
8
0
10
380.718000
20
54.337300
11
386.705000
21
60.324200
0
LINE
8
0
10
386.705000
20
60.324200
11
392.692000
21
66.311000
0
LINE
8
0
10
392.692000
20
66.311000
11
398.679000
21
72.297800
0
LINE
8
0
10
398.679000
20
72.297800
11
398.679000
21
80.764500
0
LINE
8
0
10
398.679000
20
80.764500
11
392.692000
21
86.751300
0
LINE
8
0
10
392.692000
20
86.751300
11
392.692000
21
95.218000
0
LINE
8
0
10
398.679000
20
72.297800
11
404.665000
21
78.284700
0
LINE
8
0
10
404.665000
20
78.284700
11
413.132000
21
78.284700
0
LINE
8
0
10
413.132000
20
78.284700
11
419.119000
21
84.271500
0
LINE
8
0
10
398.679000
20
72.297800
11
398.679000
21
80.764500
0
LINE
8
0
10
398.679000
20
80.764500
11
398.679000
21
89.231200
0
LINE
8
0
10
398.679000
20
89.231200
11
398.679000
21
97.697800
0
LINE
8
0
10
398.679000
20
97.697800
11
392.692000
21
103.685000
0
LINE
8
0
10
392.692000
20
103.685000
11
384.225000
21
103.685000
0
LINE
8
0
10
384.225000
20
103.685000
11
378.238000
21
109.671000
0
LINE
8
0
10
398.679000
20
97.697800
11
398.679000
21
106.164000
0
LINE
8
0
10
398.679000
20
106.164000
11
404.665000
21
112.151000
0
LINE
8
0
10
404.665000
20
112.151000
11
404.665000
21
120.618000
0
LINE
8
0
10
380.718000
20
45.870700
11
380.718000
21
54.337300
0
LINE
8
0
10
380.718000
20
54.337300
11
380.718000
21
62.804000
0
LINE
8
0
10
380.718000
20
62.804000
11
380.718000
21
71.270700
0
LINE
8
0
10
380.718000
20
71.270700
11
380.718000
21
79.737300
0
LINE
8
0
10
380.718000
20
79.737300
11
374.731000
21
85.724200
0
LINE
8
0
10
374.731000
20
85.724200
11
366.265000
21
85.724200
0
LINE
8
0
10
366.265000
20
85.724200
11
360.278000
21
91.711000
0
LINE
8
0
10
380.718000
20
79.737300
11
380.718000
21
88.204000
0
LINE
8
0
10
380.718000
20
88.204000
11
386.705000
21
94.190800
0
LINE
8
0
10
386.705000
20
94.190800
11
386.705000
21
102.657000
0
LINE
8
0
10
380.718000
20
79.737300
11
380.718000
21
88.204000
0
LINE
8
0
10
380.718000
20
88.204000
11
380.718000
21
96.670600
0
LINE
8
0
10
380.718000
20
96.670600
11
380.718000
21
105.137000
0
LINE
8
0
10
380.718000
20
105.137000
11
374.731000
21
111.124000
0
LINE
8
0
10
374.731000
20
111.124000
11
366.265000
21
111.124000
0
LINE
8
0
10
366.265000
20
111.124000
11
360.278000
21
117.111000
0
LINE
8
0
10
380.718000
20
105.137000
11
380.718000
21
113.604000
0
LINE
8
0
10
380.718000
20
113.604000
11
386.705000
21
119.591000
0
LINE
8
0
10
386.705000
20
119.591000
11
386.705000
21
128.057000
0
LINE
8
0
10
380.718000
20
105.137000
11
374.731000
21
111.124000
0
LINE
8
0
10
374.731000
20
111.124000
11
366.265000
21
111.124000
0
LINE
8
0
10
366.265000
20
111.124000
11
357.798000
21
111.124000
0
LINE
8
0
10
357.798000
20
111.124000
11
349.331000
21
111.124000
0
LINE
8
0
10
349.331000
20
111.124000
11
343.344000
21
105.137000
0
LINE
8
0
10
343.344000
20
105.137000
11
343.344000
21
96.670600
0
LINE
8
0
10
343.344000
20
96.670600
11
337.358000
21
90.683800
0
LINE
8
0
10
349.331000
20
111.124000
11
340.865000
21
111.124000
0
LINE
8
0
10
340.865000
20
111.124000
11
334.878000
21
117.111000
0
LINE
8
0
10
334.878000
20
117.111000
11
326.411000
21
117.111000
0
LINE
8
0
10
349.331000
20
111.124000
11
343.344000
21
117.111000
0
LINE
8
0
10
343.344000
20
117.111000
11
337.358000
21
123.098000
0
LINE
8
0
10
337.358000
20
123.098000
11
331.371000
21
129.085000
0
LINE
8
0
10
331.371000
20
129.085000
11
322.904000
21
129.085000
0
LINE
8
0
10
322.904000
20
129.085000
11
316.917000
21
123.098000
0
LINE
8
0
10
316.917000
20
123.098000
11
308.451000
21
123.098000
0
LINE
8
0
10
331.371000
20
129.085000
11
325.384000
21
135.071000
0
LINE
8
0
10
325.384000
20
135.071000
11
325.384000
21
143.538000
0
LINE
8
0
10
325.384000
20
143.538000
11
319.397000
21
149.525000
0
LINE
8
0
10
380.718000
20
105.137000
11
380.718000
21
113.604000
0
LINE
8
0
10
380.718000
20
113.604000
11
386.705000
21
119.591000
0
LINE
8
0
10
386.705000
20
119.591000
11
392.692000
21
125.578000
0
LINE
8
0
10
392.692000
20
125.578000
11
398.679000
21
131.564000
0
LINE
8
0
10
398.679000
20
131.564000
11
398.679000
21
140.031000
0
LINE
8
0
10
398.679000
20
140.031000
11
392.692000
21
146.018000
0
LINE
8
0
10
392.692000
20
146.018000
11
392.692000
21
154.485000
0
LINE
8
0
10
398.679000
20
131.564000
11
404.665000
21
137.551000
0
LINE
8
0
10
404.665000
20
137.551000
11
413.132000
21
137.551000
0
LINE
8
0
10
413.132000
20
137.551000
11
419.119000
21
143.538000
0
LINE
8
0
10
398.679000
20
131.564000
11
398.679000
21
140.031000
0
LINE
8
0
10
398.679000
20
140.031000
11
398.679000
21
148.498000
0
LINE
8
0
10
398.679000
20
148.498000
11
398.679000
21
156.964000
0
LINE
8
0
10
398.679000
20
156.964000
11
392.692000
21
162.951000
0
LINE
8
0
10
392.692000
20
162.951000
11
384.225000
21
162.951000
0
LINE
8
0
10
384.225000
20
162.951000
11
378.238000
21
168.938000
0
LINE
8
0
10
398.679000
20
156.964000
11
398.679000
21
165.431000
0
LINE
8
0
10
398.679000
20
165.431000
11
404.665000
21
171.418000
0
LINE
8
0
10
404.665000
20
171.418000
11
404.665000
21
179.885000
0
LINE
8
0
10
380.718000
20
105.137000
11
374.731000
21
111.124000
0
LINE
8
0
10
374.731000
20
111.124000
11
366.265000
21
111.124000
0
LINE
8
0
10
366.265000
20
111.124000
11
357.798000
21
111.124000
0
LINE
8
0
10
357.798000
20
111.124000
11
349.331000
21
111.124000
0
LINE
8
0
10
349.331000
20
111.124000
11
340.865000
21
111.124000
0
LINE
8
0
10
340.865000
20
111.124000
11
334.878000
21
105.137000
0
LINE
8
0
10
334.878000
20
105.137000
11
334.878000
21
96.670600
0
LINE
8
0
10
334.878000
20
96.670600
11
328.891000
21
90.683800
0
LINE
8
0
10
340.865000
20
111.124000
11
332.398000
21
111.124000
0
LINE
8
0
10
332.398000
20
111.124000
11
326.411000
21
117.111000
0
LINE
8
0
10
326.411000
20
117.111000
11
317.944000
21
117.111000
0
LINE
8
0
10
340.865000
20
111.124000
11
332.398000
21
111.124000
0
LINE
8
0
10
332.398000
20
111.124000
11
323.931000
21
111.124000
0
LINE
8
0
10
323.931000
20
111.124000
11
315.465000
21
111.124000
0
LINE
8
0
10
315.465000
20
111.124000
11
309.478000
21
105.137000
0
LINE
8
0
10
309.478000
20
105.137000
11
309.478000
21
96.670600
0
LINE
8
0
10
309.478000
20
96.670600
11
303.491000
21
90.683800
0
LINE
8
0
10
315.465000
20
111.124000
11
306.998000
21
111.124000
0
LINE
8
0
10
306.998000
20
111.124000
11
301.011000
21
117.111000
0
LINE
8
0
10
301.011000
20
117.111000
11
292.544000
21
117.111000
0
LINE
8
0
10
315.465000
20
111.124000
11
309.478000
21
105.137000
0
LINE
8
0
10
309.478000
20
105.137000
11
309.478000
21
96.670600
0
LINE
8
0
10
309.478000
20
96.670600
11
309.478000
21
88.204000
0
LINE
8
0
10
309.478000
20
88.204000
11
309.478000
21
79.737300
0
LINE
8
0
10
309.478000
20
79.737300
11
315.465000
21
73.750500
0
LINE
8
0
10
315.465000
20
73.750500
11
323.931000
21
73.750500
0
LINE
8
0
10
323.931000
20
73.750500
11
329.918000
21
67.763700
0
LINE
8
0
10
309.478000
20
79.737300
11
309.478000
21
71.270700
0
LINE
8
0
10
309.478000
20
71.270700
11
303.491000
21
65.283800
0
LINE
8
0
10
303.491000
20
65.283800
11
303.491000
21
56.817200
0
LINE
8
0
10
309.478000
20
79.737300
11
303.491000
21
73.750500
0
LINE
8
0
10
303.491000
20
73.750500
11
297.504000
21
67.763700
0
LINE
8
0
10
297.504000
20
67.763700
11
291.517000
21
61.776800
0
LINE
8
0
10
291.517000
20
61.776800
11
291.517000
21
53.310200
0
LINE
8
0
10
291.517000
20
53.310200
11
297.504000
21
47.323300
0
LINE
8
0
10
297.504000
20
47.323300
11
297.504000
21
38.856700
0
LINE
8
0
10
291.517000
20
61.776800
11
285.530000
21
55.790000
0
LINE
8
0
10
285.530000
20
55.790000
11
277.064000
21
55.790000
0
LINE
8
0
10
277.064000
20
55.790000
11
271.077000
21
49.803200
0
LINE
8
0
10
315.465000
20
111.124000
11
306.998000
21
111.124000
0
LINE
8
0
10
306.998000
20
111.124000
11
301.011000
21
117.111000
0
LINE
8
0
10
301.011000
20
117.111000
11
295.024000
21
123.098000
0
LINE
8
0
10
295.024000
20
123.098000
11
289.037000
21
129.085000
0
LINE
8
0
10
289.037000
20
129.085000
11
280.571000
21
129.085000
0
LINE
8
0
10
280.571000
20
129.085000
11
274.584000
21
123.098000
0
LINE
8
0
10
274.584000
20
123.098000
11
266.117000
21
123.098000
0
LINE
8
0
10
289.037000
20
129.085000
11
283.051000
21
135.071000
0
LINE
8
0
10
283.051000
20
135.071000
11
283.051000
21
143.538000
0
LINE
8
0
10
283.051000
20
143.538000
11
277.064000
21
149.525000
0
LINE
8
0
10
289.037000
20
129.085000
11
280.571000
21
129.085000
0
LINE
8
0
10
280.571000
20
129.085000
11
272.104000
21
129.085000
0
LINE
8
0
10
272.104000
20
129.085000
11
263.637000
21
129.085000
0
LINE
8
0
10
263.637000
20
129.085000
11
257.651000
21
123.098000
0
LINE
8
0
10
257.651000
20
123.098000
11
257.651000
21
114.631000
0
LINE
8
0
10
257.651000
20
114.631000
11
251.664000
21
108.644000
0
LINE
8
0
10
263.637000
20
129.085000
11
255.171000
21
129.085000
0
LINE
8
0
10
255.171000
20
129.085000
11
249.184000
21
135.071000
0
LINE
8
0
10
249.184000
20
135.071000
11
240.717000
21
135.071000
0
LINE
8
0
10
315.465000
20
111.124000
11
309.478000
21
117.111000
0
LINE
8
0
10
309.478000
20
117.111000
11
303.491000
21
123.098000
0
LINE
8
0
10
303.491000
20
123.098000
11
297.504000
21
129.085000
0
LINE
8
0
10
297.504000
20
129.085000
11
291.517000
21
135.071000
0
LINE
8
0
10
291.517000
20
135.071000
11
283.051000
21
135.071000
0
LINE
8
0
10
283.051000
20
135.071000
11
277.064000
21
129.085000
0
LINE
8
0
10
277.064000
20
129.085000
11
268.597000
21
129.085000
0
LINE
8
0
10
291.517000
20
135.071000
11
285.530000
21
141.058000
0
LINE
8
0
10
285.530000
20
141.058000
11
285.530000
21
149.525000
0
LINE
8
0
10
285.530000
20
149.525000
11
279.544000
21
155.512000
0
LINE
8
0
10
291.517000
20
135.071000
11
285.530000
21
141.058000
0
LINE
8
0
10
285.530000
20
141.058000
11
279.544000
21
147.045000
0
LINE
8
0
10
279.544000
20
147.045000
11
273.557000
21
153.032000
0
LINE
8
0
10
273.557000
20
153.032000
11
265.090000
21
153.032000
0
LINE
8
0
10
265.090000
20
153.032000
11
259.103000
21
147.045000
0
LINE
8
0
10
259.103000
20
147.045000
11
250.637000
21
147.045000
0
LINE
8
0
10
273.557000
20
153.032000
11
267.570000
21
159.019000
0
LINE
8
0
10
267.570000
20
159.019000
11
267.570000
21
167.485000
0
LINE
8
0
10
267.570000
20
167.485000
11
261.583000
21
173.472000
0
LINE
8
0
10
273.557000
20
153.032000
11
265.090000
21
153.032000
0
LINE
8
0
10
265.090000
20
153.032000
11
259.103000
21
147.045000
0
LINE
8
0
10
259.103000
20
147.045000
11
253.116000
21
141.058000
0
LINE
8
0
10
253.116000
20
141.058000
11
247.130000
21
135.071000
0
LINE
8
0
10
247.130000
20
135.071000
11
247.130000
21
126.605000
0
LINE
8
0
10
247.130000
20
126.605000
11
253.116000
21
120.618000
0
LINE
8
0
10
253.116000
20
120.618000
11
253.116000
21
112.151000
0
LINE
8
0
10
247.130000
20
135.071000
11
241.143000
21
129.085000
0
LINE
8
0
10
241.143000
20
129.085000
11
232.676000
21
129.085000
0
LINE
8
0
10
232.676000
20
129.085000
11
226.689000
21
123.098000
0
LINE
8
0
10
247.130000
20
135.071000
11
238.663000
21
135.071000
0
LINE
8
0
10
238.663000
20
135.071000
11
230.196000
21
135.071000
0
LINE
8
0
10
230.196000
20
135.071000
11
221.730000
21
135.071000
0
LINE
8
0
10
221.730000
20
135.071000
11
215.743000
21
129.085000
0
LINE
8
0
10
215.743000
20
129.085000
11
215.743000
21
120.618000
0
LINE
8
0
10
215.743000
20
120.618000
11
209.756000
21
114.631000
0
LINE
8
0
10
221.730000
20
135.071000
11
213.263000
21
135.071000
0
LINE
8
0
10
213.263000
20
135.071000
11
207.276000
21
141.058000
0
LINE
8
0
10
207.276000
20
141.058000
11
198.809000
21
141.058000
0
LINE
8
0
10
273.557000
20
153.032000
11
267.570000
21
159.019000
0
LINE
8
0
10
267.570000
20
159.019000
11
267.570000
21
167.485000
0
LINE
8
0
10
267.570000
20
167.485000
11
267.570000
21
175.952000
0
LINE
8
0
10
267.570000
20
175.952000
11
267.570000
21
184.419000
0
LINE
8
0
10
267.570000
20
184.419000
11
261.583000
21
190.406000
0
LINE
8
0
10
261.583000
20
190.406000
11
253.116000
21
190.406000
0
LINE
8
0
10
253.116000
20
190.406000
11
247.130000
21
196.392000
0
LINE
8
0
10
267.570000
20
184.419000
11
267.570000
21
192.885000
0
LINE
8
0
10
267.570000
20
192.885000
11
273.557000
21
198.872000
0
LINE
8
0
10
273.557000
20
198.872000
11
273.557000
21
207.339000
0
LINE
8
0
10
267.570000
20
184.419000
11
261.583000
21
190.406000
0
LINE
8
0
10
261.583000
20
190.406000
11
255.596000
21
196.392000
0
LINE
8
0
10
255.596000
20
196.392000
11
249.609000
21
202.379000
0
LINE
8
0
10
249.609000
20
202.379000
11
241.143000
21
202.379000
0
LINE
8
0
10
241.143000
20
202.379000
11
235.156000
21
196.392000
0
LINE
8
0
10
235.156000
20
196.392000
11
226.689000
21
196.392000
0
LINE
8
0
10
249.609000
20
202.379000
11
243.623000
21
208.366000
0
LINE
8
0
10
243.623000
20
208.366000
11
243.623000
21
216.833000
0
LINE
8
0
10
243.623000
20
216.833000
11
237.636000
21
222.820000
0
LINE
8
0
10
380.718000
20
105.137000
11
380.718000
21
113.604000
0
LINE
8
0
10
380.718000
20
113.604000
11
386.705000
21
119.591000
0
LINE
8
0
10
386.705000
20
119.591000
11
392.692000
21
125.578000
0
LINE
8
0
10
392.692000
20
125.578000
11
398.679000
21
131.564000
0
LINE
8
0
10
398.679000
20
131.564000
11
404.665000
21
137.551000
0
LINE
8
0
10
404.665000
20
137.551000
11
404.665000
21
146.018000
0
LINE
8
0
10
404.665000
20
146.018000
11
398.679000
21
152.005000
0
LINE
8
0
10
398.679000
20
152.005000
11
398.679000
21
160.471000
0
LINE
8
0
10
404.665000
20
137.551000
11
410.652000
21
143.538000
0
LINE
8
0
10
410.652000
20
143.538000
11
419.119000
21
143.538000
0
LINE
8
0
10
419.119000
20
143.538000
11
425.106000
21
149.525000
0
LINE
8
0
10
404.665000
20
137.551000
11
410.652000
21
143.538000
0
LINE
8
0
10
410.652000
20
143.538000
11
416.639000
21
149.525000
0
LINE
8
0
10
416.639000
20
149.525000
11
422.626000
21
155.512000
0
LINE
8
0
10
422.626000
20
155.512000
11
422.626000
21
163.978000
0
LINE
8
0
10
422.626000
20
163.978000
11
416.639000
21
169.965000
0
LINE
8
0
10
416.639000
20
169.965000
11
416.639000
21
178.432000
0
LINE
8
0
10
422.626000
20
155.512000
11
428.613000
21
161.499000
0
LINE
8
0
10
428.613000
20
161.499000
11
437.079000
21
161.499000
0
LINE
8
0
10
437.079000
20
161.499000
11
443.066000
21
167.485000
0
LINE
8
0
10
422.626000
20
155.512000
11
422.626000
21
163.978000
0
LINE
8
0
10
422.626000
20
163.978000
11
416.639000
21
169.965000
0
LINE
8
0
10
416.639000
20
169.965000
11
410.652000
21
175.952000
0
LINE
8
0
10
410.652000
20
175.952000
11
404.665000
21
181.939000
0
LINE
8
0
10
404.665000
20
181.939000
11
396.199000
21
181.939000
0
LINE
8
0
10
396.199000
20
181.939000
11
390.212000
21
175.952000
0
LINE
8
0
10
390.212000
20
175.952000
11
381.745000
21
175.952000
0
LINE
8
0
10
404.665000
20
181.939000
11
398.679000
21
187.926000
0
LINE
8
0
10
398.679000
20
187.926000
11
398.679000
21
196.392000
0
LINE
8
0
10
398.679000
20
196.392000
11
392.692000
21
202.379000
0
LINE
8
0
10
404.665000
20
181.939000
11
404.665000
21
190.406000
0
LINE
8
0
10
404.665000
20
190.406000
11
404.665000
21
198.872000
0
LINE
8
0
10
404.665000
20
198.872000
11
404.665000
21
207.339000
0
LINE
8
0
10
404.665000
20
207.339000
11
398.679000
21
213.326000
0
LINE
8
0
10
398.679000
20
213.326000
11
390.212000
21
213.326000
0
LINE
8
0
10
390.212000
20
213.326000
11
384.225000
21
219.313000
0
LINE
8
0
10
404.665000
20
207.339000
11
404.665000
21
215.806000
0
LINE
8
0
10
404.665000
20
215.806000
11
410.652000
21
221.792000
0
LINE
8
0
10
410.652000
20
221.792000
11
410.652000
21
230.259000
0
LINE
8
0
10
422.626000
20
155.512000
11
428.613000
21
161.499000
0
LINE
8
0
10
428.613000
20
161.499000
11
437.079000
21
161.499000
0
LINE
8
0
10
437.079000
20
161.499000
11
445.546000
21
161.499000
0
LINE
8
0
10
445.546000
20
161.499000
11
454.013000
21
161.499000
0
LINE
8
0
10
454.013000
20
161.499000
11
460.000000
21
167.485000
0
LINE
8
0
10
460.000000
20
167.485000
11
460.000000
21
175.952000
0
LINE
8
0
10
460.000000
20
175.952000
11
465.986000
21
181.939000
0
LINE
8
0
10
454.013000
20
161.499000
11
462.479000
21
161.499000
0
LINE
8
0
10
462.479000
20
161.499000
11
468.466000
21
155.512000
0
LINE
8
0
10
468.466000
20
155.512000
11
476.933000
21
155.512000
0
LINE
8
0
10
454.013000
20
161.499000
11
460.000000
21
167.485000
0
LINE
8
0
10
460.000000
20
167.485000
11
465.986000
21
173.472000
0
LINE
8
0
10
465.986000
20
173.472000
11
471.973000
21
179.459000
0
LINE
8
0
10
471.973000
20
179.459000
11
471.973000
21
187.926000
0
LINE
8
0
10
471.973000
20
187.926000
11
465.986000
21
193.913000
0
LINE
8
0
10
465.986000
20
193.913000
11
465.986000
21
202.379000
0
LINE
8
0
10
471.973000
20
179.459000
11
477.960000
21
185.446000
0
LINE
8
0
10
477.960000
20
185.446000
11
486.427000
21
185.446000
0
LINE
8
0
10
486.427000
20
185.446000
11
492.414000
21
191.433000
0
LINE
8
0
10
422.626000
20
155.512000
11
422.626000
21
163.978000
0
LINE
8
0
10
422.626000
20
163.978000
11
422.626000
21
172.445000
0
LINE
8
0
10
422.626000
20
172.445000
11
422.626000
21
180.912000
0
LINE
8
0
10
422.626000
20
180.912000
11
422.626000
21
189.378000
0
LINE
8
0
10
422.626000
20
189.378000
11
416.639000
21
195.365000
0
LINE
8
0
10
416.639000
20
195.365000
11
408.172000
21
195.365000
0
LINE
8
0
10
408.172000
20
195.365000
11
402.186000
21
201.352000
0
LINE
8
0
10
422.626000
20
189.378000
11
422.626000
21
197.845000
0
LINE
8
0
10
422.626000
20
197.845000
11
428.613000
21
203.832000
0
LINE
8
0
10
428.613000
20
203.832000
11
428.613000
21
212.299000
0
LINE
8
0
10
422.626000
20
189.378000
11
422.626000
21
197.845000
0
LINE
8
0
10
422.626000
20
197.845000
11
422.626000
21
206.312000
0
LINE
8
0
10
422.626000
20
206.312000
11
422.626000
21
214.778000
0
LINE
8
0
10
422.626000
20
214.778000
11
416.639000
21
220.765000
0
LINE
8
0
10
416.639000
20
220.765000
11
408.172000
21
220.765000
0
LINE
8
0
10
408.172000
20
220.765000
11
402.186000
21
226.752000
0
LINE
8
0
10
422.626000
20
214.778000
11
422.626000
21
223.245000
0
LINE
8
0
10
422.626000
20
223.245000
11
428.613000
21
229.232000
0
LINE
8
0
10
428.613000
20
229.232000
11
428.613000
21
237.699000
0
LINE
8
0
10
422.626000
20
214.778000
11
416.639000
21
220.765000
0
LINE
8
0
10
416.639000
20
220.765000
11
408.172000
21
220.765000
0
LINE
8
0
10
408.172000
20
220.765000
11
399.706000
21
220.765000
0
LINE
8
0
10
399.706000
20
220.765000
11
391.239000
21
220.765000
0
LINE
8
0
10
391.239000
20
220.765000
11
385.252000
21
214.778000
0
LINE
8
0
10
385.252000
20
214.778000
11
385.252000
21
206.312000
0
LINE
8
0
10
385.252000
20
206.312000
11
379.265000
21
200.325000
0
LINE
8
0
10
391.239000
20
220.765000
11
382.772000
21
220.765000
0
LINE
8
0
10
382.772000
20
220.765000
11
376.786000
21
226.752000
0
LINE
8
0
10
376.786000
20
226.752000
11
368.319000
21
226.752000
0
LINE
8
0
10
391.239000
20
220.765000
11
385.252000
21
226.752000
0
LINE
8
0
10
385.252000
20
226.752000
11
379.265000
21
232.739000
0
LINE
8
0
10
379.265000
20
232.739000
11
373.279000
21
238.726000
0
LINE
8
0
10
373.279000
20
238.726000
11
364.812000
21
238.726000
0
LINE
8
0
10
364.812000
20
238.726000
11
358.825000
21
232.739000
0
LINE
8
0
10
358.825000
20
232.739000
11
350.358000
21
232.739000
0
LINE
8
0
10
373.279000
20
238.726000
11
367.292000
21
244.713000
0
LINE
8
0
10
367.292000
20
244.713000
11
367.292000
21
253.179000
0
LINE
8
0
10
367.292000
20
253.179000
11
361.305000
21
259.166000
0
LINE
8
0
10
422.626000
20
214.778000
11
422.626000
21
223.245000
0
LINE
8
0
10
422.626000
20
223.245000
11
428.613000
21
229.232000
0
LINE
8
0
10
428.613000
20
229.232000
11
434.600000
21
235.219000
0
LINE
8
0
10
434.600000
20
235.219000
11
440.586000
21
241.206000
0
LINE
8
0
10
440.586000
20
241.206000
11
440.586000
21
249.672000
0
LINE
8
0
10
440.586000
20
249.672000
11
434.600000
21
255.659000
0
LINE
8
0
10
434.600000
20
255.659000
11
434.600000
21
264.126000
0
LINE
8
0
10
440.586000
20
241.206000
11
446.573000
21
247.192000
0
LINE
8
0
10
446.573000
20
247.192000
11
455.040000
21
247.192000
0
LINE
8
0
10
455.040000
20
247.192000
11
461.027000
21
253.179000
0
LINE
8
0
10
440.586000
20
241.206000
11
440.586000
21
249.672000
0
LINE
8
0
10
440.586000
20
249.672000
11
440.586000
21
258.139000
0
LINE
8
0
10
440.586000
20
258.139000
11
440.586000
21
266.606000
0
LINE
8
0
10
440.586000
20
266.606000
11
434.600000
21
272.592000
0
LINE
8
0
10
434.600000
20
272.592000
11
426.133000
21
272.592000
0
LINE
8
0
10
426.133000
20
272.592000
11
420.146000
21
278.579000
0
LINE
8
0
10
440.586000
20
266.606000
11
440.586000
21
275.072000
0
LINE
8
0
10
440.586000
20
275.072000
11
446.573000
21
281.059000
0
LINE
8
0
10
446.573000
20
281.059000
11
446.573000
21
289.526000
0
LINE
8
0
10
186.549000
20
-98.627000
11
186.549000
21
-90.160300
0
LINE
8
0
10
186.549000
20
-90.160300
11
186.549000
21
-81.693700
0
LINE
8
0
10
186.549000
20
-81.693700
11
186.549000
21
-73.227000
0
LINE
8
0
10
186.549000
20
-73.227000
11
186.549000
21
-64.760300
0
LINE
8
0
10
186.549000
20
-64.760300
11
180.562000
21
-58.773500
0
LINE
8
0
10
180.562000
20
-58.773500
11
172.096000
21
-58.773500
0
LINE
8
0
10
172.096000
20
-58.773500
11
166.109000
21
-52.786700
0
LINE
8
0
10
186.549000
20
-64.760300
11
186.549000
21
-56.293700
0
LINE
8
0
10
186.549000
20
-56.293700
11
192.536000
21
-50.306800
0
LINE
8
0
10
192.536000
20
-50.306800
11
192.536000
21
-41.840200
0
LINE
8
0
10
186.549000
20
-64.760300
11
186.549000
21
-56.293700
0
LINE
8
0
10
186.549000
20
-56.293700
11
186.549000
21
-47.827000
0
LINE
8
0
10
186.549000
20
-47.827000
11
186.549000
21
-39.360400
0
LINE
8
0
10
186.549000
20
-39.360400
11
180.562000
21
-33.373500
0
LINE
8
0
10
180.562000
20
-33.373500
11
172.096000
21
-33.373500
0
LINE
8
0
10
172.096000
20
-33.373500
11
166.109000
21
-27.386700
0
LINE
8
0
10
186.549000
20
-39.360400
11
186.549000
21
-30.893700
0
LINE
8
0
10
186.549000
20
-30.893700
11
192.536000
21
-24.906900
0
LINE
8
0
10
192.536000
20
-24.906900
11
192.536000
21
-16.440200
0
LINE
8
0
10
186.549000
20
-39.360400
11
180.562000
21
-33.373500
0
LINE
8
0
10
180.562000
20
-33.373500
11
172.096000
21
-33.373500
0
LINE
8
0
10
172.096000
20
-33.373500
11
163.629000
21
-33.373500
0
LINE
8
0
10
163.629000
20
-33.373500
11
155.163000
21
-33.373500
0
LINE
8
0
10
155.163000
20
-33.373500
11
149.176000
21
-39.360400
0
LINE
8
0
10
149.176000
20
-39.360400
11
149.176000
21
-47.827000
0
LINE
8
0
10
149.176000
20
-47.827000
11
143.189000
21
-53.813800
0
LINE
8
0
10
155.163000
20
-33.373500
11
146.696000
21
-33.373500
0
LINE
8
0
10
146.696000
20
-33.373500
11
140.709000
21
-27.386700
0
LINE
8
0
10
140.709000
20
-27.386700
11
132.242000
21
-27.386700
0
LINE
8
0
10
155.163000
20
-33.373500
11
149.176000
21
-27.386700
0
LINE
8
0
10
149.176000
20
-27.386700
11
143.189000
21
-21.399900
0
LINE
8
0
10
143.189000
20
-21.399900
11
137.202000
21
-15.413000
0
LINE
8
0
10
137.202000
20
-15.413000
11
128.735000
21
-15.413000
0
LINE
8
0
10
128.735000
20
-15.413000
11
122.749000
21
-21.399900
0
LINE
8
0
10
122.749000
20
-21.399900
11
114.282000
21
-21.399900
0
LINE
8
0
10
137.202000
20
-15.413000
11
131.215000
21
-9.426190
0
LINE
8
0
10
131.215000
20
-9.426190
11
131.215000
21
-0.959531
0
LINE
8
0
10
131.215000
20
-0.959531
11
125.228000
21
5.027300
0
LINE
8
0
10
143.189000
20
-21.399900
11
143.189000
21
-12.933200
0
LINE
8
0
10
143.189000
20
-12.933200
11
149.176000
21
-6.946360
0
LINE
8
0
10
149.176000
20
-6.946360
11
155.163000
21
-0.959531
0
LINE
8
0
10
155.163000
20
-0.959531
11
161.149000
21
5.027300
0
LINE
8
0
10
161.149000
20
5.027300
11
161.149000
21
13.494000
0
LINE
8
0
10
161.149000
20
13.494000
11
155.163000
21
19.480800
0
LINE
8
0
10
155.163000
20
19.480800
11
155.163000
21
27.947500
0
LINE
8
0
10
161.149000
20
5.027300
11
167.136000
21
11.014100
0
LINE
8
0
10
167.136000
20
11.014100
11
175.603000
21
11.014100
0
LINE
8
0
10
175.603000
20
11.014100
11
181.590000
21
17.001000
0
LINE
8
0
10
161.149000
20
5.027300
11
161.149000
21
13.494000
0
LINE
8
0
10
161.149000
20
13.494000
11
161.149000
21
21.960600
0
LINE
8
0
10
161.149000
20
21.960600
11
161.149000
21
30.427300
0
LINE
8
0
10
161.149000
20
30.427300
11
155.163000
21
36.414100
0
LINE
8
0
10
155.163000
20
36.414100
11
146.696000
21
36.414100
0
LINE
8
0
10
146.696000
20
36.414100
11
140.709000
21
42.400900
0
LINE
8
0
10
161.149000
20
30.427300
11
161.149000
21
38.893900
0
LINE
8
0
10
161.149000
20
38.893900
11
167.136000
21
44.880800
0
LINE
8
0
10
167.136000
20
44.880800
11
167.136000
21
53.347400
0
LINE
8
0
10
-39.792700
20
-99.755900
11
-39.792700
21
-91.289200
0
LINE
8
0
10
-39.792700
20
-91.289200
11
-39.792700
21
-82.822500
0
LINE
8
0
10
-39.792700
20
-82.822500
11
-39.792700
21
-74.355900
0
LINE
8
0
10
-39.792700
20
-74.355900
11
-39.792700
21
-65.889200
0
LINE
8
0
10
-39.792700
20
-65.889200
11
-45.779600
21
-59.902400
0
LINE
8
0
10
-45.779600
20
-59.902400
11
-54.246200
21
-59.902400
0
LINE
8
0
10
-54.246200
20
-59.902400
11
-60.233000
21
-53.915600
0
LINE
8
0
10
-39.792700
20
-65.889200
11
-39.792700
21
-57.422600
0
LINE
8
0
10
-39.792700
20
-57.422600
11
-33.805900
21
-51.435700
0
LINE
8
0
10
-33.805900
20
-51.435700
11
-33.805900
21
-42.969100
0
LINE
8
0
10
-39.792700
20
-65.889200
11
-45.779600
21
-59.902400
0
LINE
8
0
10
-45.779600
20
-59.902400
11
-54.246200
21
-59.902400
0
LINE
8
0
10
-54.246200
20
-59.902400
11
-60.233000
21
-65.889200
0
LINE
8
0
10
-39.792700
20
-65.889200
11
-39.792700
21
-57.422600
0
LINE
8
0
10
-39.792700
20
-57.422600
11
-45.779600
21
-51.435700
0
LINE
8
0
10
-45.779600
20
-51.435700
11
-45.779600
21
-42.969100
0
LINE
8
0
10
-39.792700
20
-65.889200
11
-39.792700
21
-57.422600
0
LINE
8
0
10
-39.792700
20
-57.422600
11
-39.792700
21
-48.955900
0
LINE
8
0
10
-39.792700
20
-48.955900
11
-39.792700
21
-40.489200
0
LINE
8
0
10
-39.792700
20
-40.489200
11
-45.779600
21
-34.502400
0
LINE
8
0
10
-45.779600
20
-34.502400
11
-54.246200
21
-34.502400
0
LINE
8
0
10
-54.246200
20
-34.502400
11
-60.233000
21
-28.515600
0
LINE
8
0
10
-39.792700
20
-40.489200
11
-39.792700
21
-32.022600
0
LINE
8
0
10
-39.792700
20
-32.022600
11
-33.805900
21
-26.035700
0
LINE
8
0
10
-33.805900
20
-26.035700
11
-33.805900
21
-17.569100
0
LINE
8
0
10
-39.792700
20
-40.489200
11
-45.779600
21
-34.502400
0
LINE
8
0
10
-45.779600
20
-34.502400
11
-54.246200
21
-34.502400
0
LINE
8
0
10
-54.246200
20
-34.502400
11
-60.233000
21
-40.489200
0
LINE
8
0
10
-39.792700
20
-40.489200
11
-39.792700
21
-32.022600
0
LINE
8
0
10
-39.792700
20
-32.022600
11
-45.779600
21
-26.035700
0
LINE
8
0
10
-45.779600
20
-26.035700
11
-45.779600
21
-17.569100
0
LINE
8
0
10
-39.792700
20
-40.489200
11
-45.779600
21
-34.502400
0
LINE
8
0
10
-45.779600
20
-34.502400
11
-54.246200
21
-34.502400
0
LINE
8
0
10
-54.246200
20
-34.502400
11
-62.712900
21
-34.502400
0
LINE
8
0
10
-62.712900
20
-34.502400
11
-71.179500
21
-34.502400
0
LINE
8
0
10
-71.179500
20
-34.502400
11
-77.166400
21
-40.489200
0
LINE
8
0
10
-77.166400
20
-40.489200
11
-77.166400
21
-48.955900
0
LINE
8
0
10
-77.166400
20
-48.955900
11
-83.153200
21
-54.942700
0
LINE
8
0
10
-71.179500
20
-34.502400
11
-79.646200
21
-34.502400
0
LINE
8
0
10
-79.646200
20
-34.502400
11
-85.633000
21
-28.515600
0
LINE
8
0
10
-85.633000
20
-28.515600
11
-94.099700
21
-28.515600
0
LINE
8
0
10
-71.179500
20
-34.502400
11
-77.166400
21
-40.489200
0
LINE
8
0
10
-77.166400
20
-40.489200
11
-77.166400
21
-48.955900
0
LINE
8
0
10
-77.166400
20
-48.955900
11
-71.179500
21
-54.942700
0
LINE
8
0
10
-71.179500
20
-34.502400
11
-79.646200
21
-34.502400
0
LINE
8
0
10
-79.646200
20
-34.502400
11
-85.633000
21
-40.489200
0
LINE
8
0
10
-85.633000
20
-40.489200
11
-94.099700
21
-40.489200
0
LINE
8
0
10
-71.179500
20
-34.502400
11
-77.166400
21
-28.515600
0
LINE
8
0
10
-77.166400
20
-28.515600
11
-83.153200
21
-22.528700
0
LINE
8
0
10
-83.153200
20
-22.528700
11
-89.140000
21
-16.541900
0
LINE
8
0
10
-89.140000
20
-16.541900
11
-97.606700
21
-16.541900
0
LINE
8
0
10
-97.606700
20
-16.541900
11
-103.594000
21
-22.528700
0
LINE
8
0
10
-103.594000
20
-22.528700
11
-112.060000
21
-22.528700
0
LINE
8
0
10
-89.140000
20
-16.541900
11
-95.126900
21
-10.555100
0
LINE
8
0
10
-95.126900
20
-10.555100
11
-95.126900
21
-2.088420
0
LINE
8
0
10
-95.126900
20
-2.088420
11
-101.114000
21
3.898410
0
LINE
8
0
10
-89.140000
20
-16.541900
11
-97.606700
21
-16.541900
0
LINE
8
0
10
-97.606700
20
-16.541900
11
-103.594000
21
-22.528700
0
LINE
8
0
10
-103.594000
20
-22.528700
11
-103.594000
21
-30.995400
0
LINE
8
0
10
-89.140000
20
-16.541900
11
-95.126900
21
-10.555100
0
LINE
8
0
10
-95.126900
20
-10.555100
11
-103.594000
21
-10.555100
0
LINE
8
0
10
-103.594000
20
-10.555100
11
-109.580000
21
-4.568250
0
LINE
8
0
10
-39.792700
20
-40.489200
11
-39.792700
21
-32.022600
0
LINE
8
0
10
-39.792700
20
-32.022600
11
-33.805900
21
-26.035700
0
LINE
8
0
10
-33.805900
20
-26.035700
11
-27.819100
21
-20.048900
0
LINE
8
0
10
-27.819100
20
-20.048900
11
-21.832200
21
-14.062100
0
LINE
8
0
10
-21.832200
20
-14.062100
11
-21.832200
21
-5.595420
0
LINE
8
0
10
-21.832200
20
-5.595420
11
-27.819100
21
0.391409
0
LINE
8
0
10
-27.819100
20
0.391409
11
-27.819100
21
8.858070
0
LINE
8
0
10
-21.832200
20
-14.062100
11
-15.845400
21
-8.075250
0
LINE
8
0
10
-15.845400
20
-8.075250
11
-7.378730
21
-8.075250
0
LINE
8
0
10
-7.378730
20
-8.075250
11
-1.391900
21
-2.088420
0
LINE
8
0
10
-21.832200
20
-14.062100
11
-21.832200
21
-5.595420
0
LINE
8
0
10
-21.832200
20
-5.595420
11
-27.819100
21
0.391409
0
LINE
8
0
10
-27.819100
20
0.391409
11
-36.285700
21
0.391409
0
LINE
8
0
10
-21.832200
20
-14.062100
11
-15.845400
21
-8.075250
0
LINE
8
0
10
-15.845400
20
-8.075250
11
-15.845400
21
0.391409
0
LINE
8
0
10
-15.845400
20
0.391409
11
-9.858560
21
6.378240
0
LINE
8
0
10
-21.832200
20
-14.062100
11
-21.832200
21
-5.595420
0
LINE
8
0
10
-21.832200
20
-5.595420
11
-21.832200
21
2.871240
0
LINE
8
0
10
-21.832200
20
2.871240
11
-21.832200
21
11.337900
0
LINE
8
0
10
-21.832200
20
11.337900
11
-27.819100
21
17.324700
0
LINE
8
0
10
-27.819100
20
17.324700
11
-36.285700
21
17.324700
0
LINE
8
0
10
-36.285700
20
17.324700
11
-42.272600
21
23.311600
0
LINE
8
0
10
-21.832200
20
11.337900
11
-21.832200
21
19.804600
0
LINE
8
0
10
-21.832200
20
19.804600
11
-15.845400
21
25.791400
0
LINE
8
0
10
-15.845400
20
25.791400
11
-15.845400
21
34.258000
0
LINE
8
0
10
-21.832200
20
11.337900
11
-27.819100
21
17.324700
0
LINE
8
0
10
-27.819100
20
17.324700
11
-36.285700
21
17.324700
0
LINE
8
0
10
-36.285700
20
17.324700
11
-42.272600
21
11.337900
0
LINE
8
0
10
-21.832200
20
11.337900
11
-21.832200
21
19.804600
0
LINE
8
0
10
-21.832200
20
19.804600
11
-27.819100
21
25.791400
0
LINE
8
0
10
-27.819100
20
25.791400
11
-27.819100
21
34.258000
0
LINE
8
0
10
-39.792700
20
-40.489200
11
-45.779600
21
-34.502400
0
LINE
8
0
10
-45.779600
20
-34.502400
11
-54.246200
21
-34.502400
0
LINE
8
0
10
-54.246200
20
-34.502400
11
-62.712900
21
-34.502400
0
LINE
8
0
10
-62.712900
20
-34.502400
11
-71.179500
21
-34.502400
0
LINE
8
0
10
-71.179500
20
-34.502400
11
-77.166400
21
-40.489200
0
LINE
8
0
10
-77.166400
20
-40.489200
11
-77.166400
21
-48.955900
0
LINE
8
0
10
-77.166400
20
-48.955900
11
-83.153200
21
-54.942700
0
LINE
8
0
10
-71.179500
20
-34.502400
11
-79.646200
21
-34.502400
0
LINE
8
0
10
-79.646200
20
-34.502400
11
-85.633000
21
-28.515600
0
LINE
8
0
10
-85.633000
20
-28.515600
11
-94.099700
21
-28.515600
0
LINE
8
0
10
-71.179500
20
-34.502400
11
-77.166400
21
-40.489200
0
LINE
8
0
10
-77.166400
20
-40.489200
11
-77.166400
21
-48.955900
0
LINE
8
0
10
-77.166400
20
-48.955900
11
-71.179500
21
-54.942700
0
LINE
8
0
10
-71.179500
20
-34.502400
11
-79.646200
21
-34.502400
0
LINE
8
0
10
-79.646200
20
-34.502400
11
-85.633000
21
-40.489200
0
LINE
8
0
10
-85.633000
20
-40.489200
11
-94.099700
21
-40.489200
0
LINE
8
0
10
-71.179500
20
-34.502400
11
-77.166400
21
-40.489200
0
LINE
8
0
10
-77.166400
20
-40.489200
11
-83.153200
21
-46.476100
0
LINE
8
0
10
-83.153200
20
-46.476100
11
-89.140000
21
-52.462900
0
LINE
8
0
10
-89.140000
20
-52.462900
11
-89.140000
21
-60.929600
0
LINE
8
0
10
-89.140000
20
-60.929600
11
-83.153200
21
-66.916400
0
LINE
8
0
10
-83.153200
20
-66.916400
11
-83.153200
21
-75.383100
0
LINE
8
0
10
-89.140000
20
-52.462900
11
-95.126900
21
-58.449700
0
LINE
8
0
10
-95.126900
20
-58.449700
11
-103.594000
21
-58.449700
0
LINE
8
0
10
-103.594000
20
-58.449700
11
-109.580000
21
-64.436600
0
LINE
8
0
10
-89.140000
20
-52.462900
11
-89.140000
21
-60.929600
0
LINE
8
0
10
-89.140000
20
-60.929600
11
-83.153200
21
-66.916400
0
LINE
8
0
10
-83.153200
20
-66.916400
11
-74.686500
21
-66.916400
0
LINE
8
0
10
-89.140000
20
-52.462900
11
-95.126900
21
-58.449700
0
LINE
8
0
10
-95.126900
20
-58.449700
11
-95.126900
21
-66.916400
0
LINE
8
0
10
-95.126900
20
-66.916400
11
-101.114000
21
-72.903200
0
LINE
8
0
10
-39.792700
20
-40.489200
11
-39.792700
21
-32.022600
0
LINE
8
0
10
-39.792700
20
-32.022600
11
-45.779600
21
-26.035700
0
LINE
8
0
10
-45.779600
20
-26.035700
11
-51.766400
21
-20.048900
0
LINE
8
0
10
-51.766400
20
-20.048900
11
-57.753200
21
-14.062100
0
LINE
8
0
10
-57.753200
20
-14.062100
11
-66.219900
21
-14.062100
0
LINE
8
0
10
-66.219900
20
-14.062100
11
-72.206700
21
-20.048900
0
LINE
8
0
10
-72.206700
20
-20.048900
11
-80.673400
21
-20.048900
0
LINE
8
0
10
-57.753200
20
-14.062100
11
-63.740100
21
-8.075250
0
LINE
8
0
10
-63.740100
20
-8.075250
11
-63.740100
21
0.391409
0
LINE
8
0
10
-63.740100
20
0.391409
11
-69.726900
21
6.378240
0
LINE
8
0
10
-57.753200
20
-14.062100
11
-66.219900
21
-14.062100
0
LINE
8
0
10
-66.219900
20
-14.062100
11
-72.206700
21
-20.048900
0
LINE
8
0
10
-72.206700
20
-20.048900
11
-72.206700
21
-28.515600
0
LINE
8
0
10
-57.753200
20
-14.062100
11
-63.740100
21
-8.075250
0
LINE
8
0
10
-63.740100
20
-8.075250
11
-72.206700
21
-8.075250
0
LINE
8
0
10
-72.206700
20
-8.075250
11
-78.193500
21
-2.088420
0
LINE
8
0
10
-57.753200
20
-14.062100
11
-57.753200
21
-5.595420
0
LINE
8
0
10
-57.753200
20
-5.595420
11
-57.753200
21
2.871240
0
LINE
8
0
10
-57.753200
20
2.871240
11
-57.753200
21
11.337900
0
LINE
8
0
10
-57.753200
20
11.337900
11
-63.740100
21
17.324700
0
LINE
8
0
10
-63.740100
20
17.324700
11
-72.206700
21
17.324700
0
LINE
8
0
10
-72.206700
20
17.324700
11
-78.193500
21
23.311600
0
LINE
8
0
10
-57.753200
20
11.337900
11
-57.753200
21
19.804600
0
LINE
8
0
10
-57.753200
20
19.804600
11
-51.766400
21
25.791400
0
LINE
8
0
10
-51.766400
20
25.791400
11
-51.766400
21
34.258000
0
LINE
8
0
10
-57.753200
20
11.337900
11
-63.740100
21
17.324700
0
LINE
8
0
10
-63.740100
20
17.324700
11
-72.206700
21
17.324700
0
LINE
8
0
10
-72.206700
20
17.324700
11
-78.193500
21
11.337900
0
LINE
8
0
10
-57.753200
20
11.337900
11
-57.753200
21
19.804600
0
LINE
8
0
10
-57.753200
20
19.804600
11
-63.740100
21
25.791400
0
LINE
8
0
10
-63.740100
20
25.791400
11
-63.740100
21
34.258000
 0 
ENDSEC
 0 
EOF